<?xml version="1.0" encoding="utf-8"?>
<!-- Generator: Adobe Illustrator 16.0.4, SVG Export Plug-In . SVG Version: 6.00 Build 0)  -->
<!DOCTYPE svg PUBLIC "-//W3C//DTD SVG 1.1//EN" "http://www.w3.org/Graphics/SVG/1.1/DTD/svg11.dtd">
<svg version="1.1" id="avatar" xmlns="http://www.w3.org/2000/svg" xmlns:xlink="http://www.w3.org/1999/xlink" x="0px" y="0px"
	 width="193.308px" height="242.091px" viewBox="0 0 193.308 242.091" enable-background="new 0 0 193.308 242.091"
	 xml:space="preserve">
<path id="body" d="M181.439,164.945c-14.341-13.599-43.766-20.771-43.766-20.771c-9.707-1.616-13.521-9.101-14.888-13.076
	c-7.166,4.717-15.385,7.403-24.126,7.403c-10.136,0-19.554-3.64-27.46-9.847c-0.118,0.658-2.559,13.353-15.566,15.52
	c0,0-29.425,7.172-43.765,20.771c0,0-11.869,11.127-11.869,24.479v52.667h193.308v-52.667
	C193.308,176.072,181.439,164.945,181.439,164.945z"/>
<path id="button_x5F_3" fill="#FFFFFF" d="M101.906,217.143c0,2.233-1.807,4.045-4.042,4.045c-2.236,0-4.042-1.812-4.042-4.045
	c0-2.234,1.807-4.042,4.042-4.042C100.099,213.101,101.906,214.908,101.906,217.143z"/>
<path id="button_x5F_2" fill="#FFFFFF" d="M101.906,200.577c0,2.23-1.807,4.045-4.042,4.045c-2.236,0-4.042-1.814-4.042-4.045
	c0-2.237,1.807-4.046,4.042-4.046C100.099,196.531,101.906,198.34,101.906,200.577z"/>
<path id="button_x5F_1" fill="#FFFFFF" d="M101.906,184.008c0,2.234-1.807,4.043-4.042,4.043c-2.236,0-4.042-1.809-4.042-4.043
	c0-2.233,1.807-4.045,4.042-4.045C100.099,179.963,101.906,181.774,101.906,184.008z"/>
<path id="shirt" fill="#FFFFFF" d="M98.73,137.128c-7.69,0-17.292-2.494-23.737-6.676l-6.306,11.869l28.744,23.551l27.632-23.551
	l-6.06-9.89C113.197,136.146,105.648,137.128,98.73,137.128z"/>
<polygon id="collar_x5F_l" fill="#FFFFFF" points="59.292,149.614 76.6,182.994 93.585,168.9 65.968,145.413 "/>
<polygon id="collar_x5F_r" fill="#FFFFFF" points="134.938,149.614 117.634,182.994 100.648,168.9 128.262,145.413 "/>
<path id="head" d="M150.527,28.823c14.094-12.61,11.127-24.479,11.127-24.479c-8.901,14.094-28.188,3.709-28.188,3.709
	c-49.697-20.77-68.983,5.192-68.983,5.192c-0.742,4.451-10.385,8.16-10.385,8.16c-12.61,16.319-13.846,52.172-13.846,52.172
	c0.227,20.013,9.891,24.727,9.891,24.727l-0.096-0.857c7.18,24.098,26.341,41.42,48.859,41.42c22.355,0,41.398-17.073,48.7-40.9
	c2.846-1.068,7.622-7.876,8.635-24.389c1.212-19.767-6.456-37.337-6.456-37.337C146.818,31.791,150.527,28.823,150.527,28.823z
	 M150.25,87.125c-0.861,4.482-2.978,8.125-5.311,9.623c-6.83,22.812-24.887,39.152-46.033,39.152
	c-21.211,0-39.308-16.437-46.092-39.352c-2.215-1.659-4.176-5.365-4.967-9.892c-0.924-5.282,0.028-10.056,2.153-11.989
	c0.262-9.906,2.533-19.196,6.337-27.311c4.449,0.026,11.791,0.172,20.014,0.753c8.084,0.569,16.563,2.785,25.221,2.225
	c0,0,15.578-1.483,22.992-6.676c0,0,6.677-6.676,11.127,0.742c0,0,3.42,2.283,6.723,5.08c3.33,7.825,5.277,16.64,5.42,25.99
	C150.196,77.065,151.271,81.812,150.25,87.125z"/>
</svg>
