<?xml version="1.0" encoding="utf-8"?>
<!-- Generator: Adobe Illustrator 16.0.4, SVG Export Plug-In . SVG Version: 6.00 Build 0)  -->
<!DOCTYPE svg PUBLIC "-//W3C//DTD SVG 1.1//EN" "http://www.w3.org/Graphics/SVG/1.1/DTD/svg11.dtd">
<svg version="1.1" id="Layer_1" xmlns="http://www.w3.org/2000/svg" xmlns:xlink="http://www.w3.org/1999/xlink" x="0px" y="0px"
	 width="514px" height="258px" viewBox="0 0 514 258" enable-background="new 0 0 514 258" xml:space="preserve">
<g>
	<linearGradient id="SVGID_1_" gradientUnits="userSpaceOnUse" x1="36.6978" y1="0" x2="36.6978" y2="53.8071">
		<stop  offset="0" style="stop-color:#7CBDE0"/>
		<stop  offset="1" style="stop-color:#47ABDF"/>
	</linearGradient>
	<path fill="url(#SVGID_1_)" d="M36.7,0C26.1,0,17.5,8.7,17.5,19.4c0,4,1.2,7.8,3.3,10.9c0.7,1.3,1.8,3.3,4.2,6.9
		c1.5,2.3,3,5.1,3,7.9v5.4c0,0.6,1.4,3.3,4.8,3.3H34c3,0,5.5,0,5.5,0h1.1c3.5,0,4.8-2.7,4.8-3.3V45c0-2.8,1.5-5.7,3-7.9
		c2.5-3.8,3.7-5.8,4.3-7.1c2-3.1,3.2-6.7,3.2-10.7C55.9,8.7,47.3,0,36.7,0z"/>
	<path fill="#93C5E0" d="M43.5,60.3H29.9c-1,0-1.7,0.7-1.7,1.6c0,0.9,0.8,1.6,1.7,1.6h13.6c1,0,1.7-0.7,1.7-1.6
		C45.2,61,44.5,60.3,43.5,60.3z M43.5,64.5H29.9c-1,0-1.8,0.7-1.8,1.6s0.8,1.6,1.8,1.6h13.5c1,0,1.8-0.7,1.8-1.6
		S44.4,64.5,43.5,64.5z M31.4,69.9l1.1,1.1c0,0,1.2,1.1,2.1,1.1h4.3c0.9,0,2.1-1.1,2.1-1.1l1.1-1.1H31.4z M43.5,56H29.9
		c-1,0-1.7,0.7-1.7,1.6c0,0.9,0.8,1.6,1.7,1.6h13.6c1,0,1.7-0.7,1.7-1.6C45.2,56.7,44.5,56,43.5,56z"/>
</g>
<linearGradient id="SVGID_2_" gradientUnits="userSpaceOnUse" x1="108.001" y1="26.3994" x2="108.001" y2="45.5786">
	<stop  offset="0" style="stop-color:#7CBDE0"/>
	<stop  offset="1" style="stop-color:#47ABDF"/>
</linearGradient>
<path fill="url(#SVGID_2_)" d="M108,26.4c-5.3,0-9.6,4.3-9.6,9.6s4.3,9.6,9.6,9.6c5.3,0,9.6-4.3,9.6-9.6S113.3,26.4,108,26.4z"/>
<path fill="#93C5E0" d="M143.4,25.1c-1.1-3.8-3.9-7-7.9-9.1c-0.6-0.3-1.1-0.6-1.7-0.8c-1.2-0.5-2.4-0.9-3.7-1.3
	c-0.3-1.3-0.8-2.5-1.3-3.7c-0.3-0.6-0.5-1.2-0.8-1.7c-2.2-4-5.3-6.8-9.1-7.9c-2.8-0.9-5.7-0.9-8.7,0.1c-2.7,0.8-5.4,2.4-8,4.6
	c-0.9,0.8-1.9,1.7-2.7,2.7c-1.3-0.3-2.6-0.5-3.8-0.7C92.3,7,89.1,7.2,86.4,8c-3,0.9-5.4,2.6-7.2,4.8c-2.5,3.1-3.6,7.1-3.1,11.7
	c0.1,0.6,0.2,1.3,0.3,1.9c0.2,1.2,0.6,2.5,1,3.8c0.6,1.6,1.2,3.2,2.1,4.8c0.6,1.1,1.2,2.1,1.9,3.2c0.2,0.4,0.5,0.8,0.8,1.1
	c0.9,1.3,1.8,2.5,2.9,3.8c-0.2,1.6-0.2,3.2-0.2,4.8c0,0.5,0,0.9,0,1.4c0,1.3,0.1,2.5,0.2,3.7c-0.8-0.3-1.6-0.6-2.3-1
	c-0.4-0.2-0.8-0.5-1.2-0.7c-2.3-1.5-3.8-3.4-4.5-5.7c-0.7-2.3-0.5-4.7,0.5-7.2c-1-1.7-1.8-3.4-2.5-5c-0.4,0.6-0.7,1.1-1,1.7
	c-2.1,4-2.6,8.2-1.4,11.9c1.1,3.8,3.9,7,7.9,9.1c0.6,0.3,1.1,0.6,1.7,0.8c1.2,0.5,2.4,0.9,3.7,1.3c0.3,1.3,0.8,2.5,1.3,3.7
	c0.3,0.6,0.5,1.2,0.8,1.7c2.2,4,5.3,6.8,9.1,7.9c2.8,0.9,5.7,0.9,8.7-0.1c2.8-0.8,5.4-2.4,8-4.6c0.9-0.8,1.9-1.7,2.7-2.7
	c1.1-1.2,2.2-2.6,3.3-4c0.6-0.9,1.3-1.8,1.9-2.8c0.1-0.1,0.1-0.2,0.2-0.3c0.9-1.4,1.7-2.9,2.5-4.5c1.7-0.8,3.3-1.7,4.8-2.6
	c1-0.6,1.9-1.2,2.8-1.9c1-0.7,2-1.5,2.9-2.3c0.2,0.8,0.4,1.6,0.4,2.4c0.1,0.5,0,0.9,0,1.4c0,2.7-0.7,5-2.2,6.9
	c-1.2,1.6-2.9,2.7-5,3.3v0c-1.4,0.4-2.9,0.6-4.6,0.6c-1,1.6-2.1,3.1-3.3,4.4c3.3,0.4,6.5,0.2,9.2-0.7c0,0,0,0,0,0
	c3-0.9,5.4-2.6,7.2-4.8c2.5-3.1,3.6-7.1,3.1-11.7c-0.1-0.6-0.2-1.3-0.3-1.9c-0.2-1.2-0.6-2.5-1-3.8c-0.6-1.6-1.2-3.2-2.1-4.8
	c-0.6-1.1-1.2-2.1-1.9-3.2c-0.2-0.4-0.5-0.8-0.8-1.1c-0.9-1.3-1.8-2.5-2.9-3.8c0.2-1.6,0.2-3.2,0.2-4.8c0-0.5,0-0.9,0-1.4
	c0-1.3-0.1-2.5-0.2-3.7c0.8,0.3,1.6,0.6,2.3,1c0.4,0.2,0.8,0.5,1.2,0.7c2.3,1.5,3.8,3.4,4.5,5.7c0.7,2.3,0.5,4.7-0.5,7.2
	c1,1.7,1.8,3.4,2.5,5c0.4-0.6,0.7-1.1,1-1.7C144.1,33,144.6,28.9,143.4,25.1z M131.7,37.7c0.3,0.5,0.6,1.1,0.9,1.6
	c0.3,0.5,0.5,1,0.7,1.5c-0.5,0.5-1,0.9-1.5,1.3c-0.4,0.3-0.8,0.6-1.1,0.9c-1.1,0.8-2.2,1.6-3.4,2.4c-1.9,1.2-4.1,2.4-6.4,3.4
	c-1.5,0.7-3,1.3-4.6,1.9c-1,0.4-2.1,0.7-3.2,1.1l-0.2,0.1l-0.2,0.1c-1.1,0.3-2.1,0.6-3.2,0.9c-1.7,0.4-3.3,0.8-4.9,1.1
	c-2.5,0.4-4.9,0.7-7.2,0.8c-1.4,0.1-2.8,0-4.2-0.1c0.1,0.4,0.2,0.9,0.3,1.3c0.3,1.2,0.7,2.4,1.2,3.4c1.1,0,2.2,0,3.4,0
	c1.8-0.1,3.6-0.3,5.5-0.5c2.4-0.3,4.9-0.8,7.3-1.5c0.4-0.1,0.9-0.2,1.3-0.3c0.6-0.2,1.2-0.3,1.8-0.5l0.4-0.1
	c0.6-0.2,1.2-0.4,1.8-0.6c0.4-0.1,0.8-0.3,1.3-0.4c-0.1,0.2-0.3,0.5-0.4,0.7c-0.7,1-1.3,1.9-2,2.8c-0.3,0.3-0.5,0.7-0.8,1
	c-0.8,1-1.7,1.9-2.5,2.7c-1,0.9-2,1.7-3,2.4c-1.4,0.9-2.8,1.6-4.2,2c-2.1,0.6-4.1,0.7-6,0.1c-2.3-0.7-4.1-2.2-5.6-4.5
	c-0.3-0.4-0.5-0.8-0.8-1.2c-0.4-0.7-0.7-1.5-1-2.3c-0.6-1.5-1-3.1-1.3-4.8c-0.1-0.5-0.2-1.1-0.2-1.6c-0.1-0.6-0.1-1.2-0.2-1.8
	c-0.1-1-0.1-1.9-0.1-2.9c1.1,1.1,2.2,2.1,3.4,3.2c0.1,0.1,0.2,0.2,0.3,0.3c2.3,0.2,4.7,0.1,7.3-0.1c-0.9-0.7-1.9-1.4-2.8-2.1
	c-1.7-1.4-3.3-2.8-4.8-4.2c-1.1-1-2.1-2.1-3-3.1c0.2-1.4,0.4-2.8,0.7-4.3c0.4-2,0.9-4.1,1.6-6.2c0.3-1.1,0.7-2.3,1.1-3.4
	c0.6-1.6,1.2-3.2,1.9-4.7c1-2.3,2.2-4.4,3.4-6.3c0.1-0.2,0.3-0.5,0.4-0.7c-1.7-0.5-3.3-0.8-4.9-0.9c-0.9,1.4-1.7,2.9-2.5,4.5
	c-1,2.1-2,4.4-2.9,6.8c-0.4,1.1-0.7,2.1-1.1,3.3c-0.2,0.7-0.4,1.3-0.6,2c0,0.1-0.1,0.3-0.1,0.4c-0.4,1.5-0.8,3-1.1,4.5
	c-0.6-0.8-1.1-1.7-1.6-2.5c-0.3-0.5-0.6-1.1-0.9-1.6c-0.3-0.5-0.5-1-0.7-1.5c-0.7-1.6-1.3-3.2-1.7-4.7c-0.2-0.8-0.4-1.6-0.4-2.4
	c-0.1-0.5,0-0.9,0-1.4c0-2.7,0.7-5,2.2-6.9c1.2-1.6,2.9-2.7,5-3.3c1.4-0.4,2.9-0.6,4.6-0.6c1.2,0,2.5,0.1,3.8,0.3
	c1.2,0.2,2.4,0.5,3.6,0.8c0.4,0.1,0.8,0.3,1.3,0.4c1.1,0.3,2.2,0.7,3.3,1.2c0.2,0.1,0.5,0.2,0.7,0.3c2.1,0.9,4.2,2,6.4,3.3
	c1.4,0.9,2.8,1.8,4.2,2.8c0.9,0.7,1.9,1.4,2.8,2.1c1.7,1.4,3.3,2.8,4.8,4.2c0.2-2.2,0.2-4.3,0-6.2c-0.1-0.1-0.2-0.2-0.3-0.3
	c-0.5-0.4-1-0.9-1.6-1.3c-0.9-0.7-1.8-1.4-2.7-2.1c-2.1-1.5-4.1-2.9-6.2-4c-1.5-0.9-3.1-1.7-4.6-2.4c-0.1,0-0.2-0.1-0.3-0.1
	c-1-0.5-2.1-0.9-3.1-1.3c1-0.9,2-1.7,3-2.4c1.4-0.9,2.8-1.6,4.2-2c2.1-0.6,4.1-0.7,6-0.1c2.3,0.7,4.1,2.2,5.6,4.5
	c0.3,0.4,0.5,0.8,0.8,1.2c0.4,0.7,0.7,1.5,1,2.3c0.6,1.5,1,3.1,1.3,4.8c0.1,0.5,0.2,1.1,0.2,1.6c0.1,0.6,0.1,1.2,0.2,1.8
	c0.1,1,0.1,1.9,0.1,2.9c0,2-0.2,4.1-0.4,6.2c-0.2,1.4-0.4,2.8-0.7,4.3c-0.4,2-0.9,4.1-1.6,6.2c-0.3,1.1-0.7,2.3-1.1,3.4
	c2.3-1.2,4.3-2.6,6.1-4c0-0.1,0.1-0.3,0.1-0.4c0.4-1.5,0.8-3,1.1-4.5C130.7,36.1,131.2,36.9,131.7,37.7z"/>
<linearGradient id="SVGID_3_" gradientUnits="userSpaceOnUse" x1="179.6831" y1="18.5732" x2="179.6831" y2="65.0815">
	<stop  offset="0" style="stop-color:#7CBDE0"/>
	<stop  offset="1" style="stop-color:#47ABDF"/>
</linearGradient>
<path fill="url(#SVGID_3_)" d="M173.6,31.1c0,2.1,1.7,3.8,3.8,3.8c2.1,0,3.8-1.7,3.8-3.8c0-2.1-1.7-3.8-3.8-3.8
	C175.3,27.3,173.6,29,173.6,31.1z M182.9,20.5c0-1.1-0.8-1.9-1.9-1.9s-1.9,0.9-1.9,1.9c0,1.1,0.8,1.9,1.9,1.9S182.9,21.5,182.9,20.5
	z M185.9,33.9c-1.4,0-2.6,1.2-2.6,2.6s1.2,2.6,2.6,2.6c1.4,0,2.6-1.2,2.6-2.6S187.4,33.9,185.9,33.9z M166.7,38.4
	c-2.3,0-3.5,2.3-3.7,2.8c-0.7,1.9-1,3.9-1,6c0,9.9,8,17.9,17.8,17.9c9.8,0,17.8-8,17.8-17.9c0-2.2-0.4-4.4-1.1-6.3
	c-0.7-1.6-1.7-2.5-3.6-2.5c-2.7,0-4,4.2-6.9,4.2c-2.8,0-2.8-3.8-6.1-3.8c-3.2,0-3.4,3.6-6.4,3.6C170.8,42.4,170.1,38.4,166.7,38.4z
	 M185.8,53.6c1.1,0,2,0.9,2,2.1c0,1.1-0.9,2.1-2,2.1c-1.1,0-2-0.9-2-2.1C183.8,54.6,184.7,53.6,185.8,53.6z M179.8,44.8
	c2.1,0,3.7,1.7,3.7,3.8c0,2.1-1.7,3.8-3.7,3.8c-2.1,0-3.7-1.7-3.7-3.8C176.1,46.5,177.8,44.8,179.8,44.8z M177.5,57.7
	c1.1,0,2,0.9,2,2.1s-0.9,2.1-2,2.1c-1.1,0-2-0.9-2-2.1S176.4,57.7,177.5,57.7z"/>
<path fill="#93C5E0" d="M167.8,4.2h23.8c1,0,1.9-0.9,1.9-2.1c0-1.2-0.8-2.1-1.9-2.1h-23.8c-1,0-1.9,0.9-1.9,2.1
	C165.9,3.3,166.8,4.2,167.8,4.2z M190.7,26.4V6.3h-3.4v22.2l1.8,1c6.9,3.6,11.2,10.6,11.2,18.4c0,11.4-9.2,20.7-20.6,20.7
	c-11.4,0-20.6-9.3-20.6-20.7c0-7.8,4.3-14.8,11.2-18.4l1.8-1V6.3h-3.4v20.1c-7.7,4-13,12.1-13,21.4c0,13.3,10.7,24.1,24,24.1
	c13.3,0,24-10.8,24-24.1C203.7,38.5,198.4,30.4,190.7,26.4z"/>
<linearGradient id="SVGID_4_" gradientUnits="userSpaceOnUse" x1="254.7788" y1="0" x2="254.7788" y2="48.8911">
	<stop  offset="0" style="stop-color:#7CBDE0"/>
	<stop  offset="1" style="stop-color:#47ABDF"/>
</linearGradient>
<path fill="url(#SVGID_4_)" d="M266,45.1c3.5,0,6.3,1.5,8.7,3.8c-1.7-9.6-7.6-17.7-15.7-22.5c-1.3,1-2.9,1.6-4.6,1.6
	c-4,0-7.2-3.2-7.2-7.1c0-3.7,2.9-6.8,6.7-7.1l0.6-2.7c0.3-1.4-0.6-2.8-2.1-3.1l-8.3-1.7c-1.4-0.3-2.9,0.6-3.2,2.1l-5.8,28.2
	c-0.3,1.4,0.6,2.8,2.1,3.1l1.2,0.2l-0.4,8.2l3.3,0.7l2.9-7.7l1.3,0.3c1.4,0.3,2.9-0.6,3.2-2.1l1.8-8.7c7.1,2.4,12.8,7.7,15.6,14.6
	C265.9,45.1,265.9,45.1,266,45.1z M251.7,6.3l1-5L246.1,0l-1,5L251.7,6.3z"/>
<g>
	<g>
		<path fill="#93C5E0" d="M248,53.3l-19-3.9l-0.7,3.3l19,3.9L248,53.3z M265.4,47.3c-11.9,0,0.1,17.5-28.3,17.5
			C221.4,64.8,223,72,223,72h58.1C281.1,72,277.4,47.3,265.4,47.3z M237.1,62.1c1.9,0,3.6-0.1,5.2-0.2l0.7-3.6l-11.4-2.3l-1.4,6.7
			C232.3,62.2,234.5,62.1,237.1,62.1z M254,25.9c0.4,0,0.7,0,1.1-0.1c2.2-0.5,3.9-2.5,3.9-4.9c0-2.8-2.2-5-5-5
			c-0.6,0-1.2,0.1-1.8,0.3c-1.9,0.7-3.2,2.5-3.2,4.7C249.1,23.7,251.3,25.9,254,25.9z"/>
	</g>
</g>
<path fill="#93C5E0" d="M346.8,31.7c-1.2-3.5,1.6-6.3,1.7-10.5c0,0,0,0,0,0c0,0,0-0.1,0-0.1c0-0.2,0-0.5,0-0.7
	C348.1,7.7,336.6,0,321.8,0c-15.1,0-27.3,10.7-27.3,23.8c0,2.7,0.4,5.2,1.1,7.5c0.6,1.8,1.2,3.1,2.2,5.1c1.2,2.3,1.6,2.9,2.4,4.4
	c2.2,4.2,4.5,8,4.4,11.4c0,4.2-4.2,13.9-4.2,13.9s7.1,3.1,13.4,4.7c7,1.8,14.9,0.9,14.9,0.9s-0.3-9.9,5.5-11.4c0,0,7.2,0,8.3,0
	c2,0,3.7-1,4.1-3.2c0.3-2.3-1.7-3.4-1-4.9c0.4-0.9,1.6-0.5,2-1.8c0.3-0.9-1-1.9-1-1.9s2.1-0.6,2.3-1.5c0.2-1-1.8-1.1-1.9-2.6
	c0-2,5.2-0.6,6.3-2.7C354.5,39.6,347.8,34.6,346.8,31.7z M344.5,21.2c0,1.1-0.3,2.2-0.9,3.5c-1.4,3.2-10,10.6-21,12.8
	c-9.9,1.9-17.4,0.7-20.9-3.9c-1.3-1.7-3.2-5.9-3.2-9.8C298.5,12.9,309,4,321.8,4c11,0,22.3,5.1,22.7,16.5c0,0.2,0,0.5,0,0.5
	C344.5,21.1,344.5,21.2,344.5,21.2z"/>
<linearGradient id="SVGID_5_" gradientUnits="userSpaceOnUse" x1="321.6479" y1="6.6812" x2="321.6479" y2="35.5259">
	<stop  offset="0" style="stop-color:#7CBDE0"/>
	<stop  offset="1" style="stop-color:#47ABDF"/>
</linearGradient>
<path fill="url(#SVGID_5_)" d="M326.9,14c0.1-0.2,0.2-0.4,0.2-0.7c0.1-0.2,0.1-0.5,0.1-0.7l-1.5-1.1c-0.4-0.3-0.5-0.8-0.4-1.2
	l0.6-1.7c-0.3-0.4-0.6-0.7-1-1l-1.7,0.7c-0.4,0.2-1,0-1.3-0.3l-1.2-1.4c-0.5,0.1-0.9,0.2-1.4,0.4l-0.2,1.8c-0.1,0.4-0.5,0.8-0.9,0.9
	l-1.8,0.3c-0.1,0.2-0.2,0.4-0.2,0.7c-0.1,0.2-0.1,0.5-0.1,0.7l1.5,1.1c0.4,0.3,0.5,0.8,0.4,1.2l-0.6,1.7c0.3,0.4,0.6,0.7,1,1
	l1.7-0.7c0.4-0.2,1,0,1.3,0.3l1.2,1.4c0.5-0.1,0.9-0.2,1.4-0.4l0.2-1.8c0.1-0.4,0.5-0.8,0.9-0.9L326.9,14z M323.3,12.5
	c-0.2,0.9-1.1,1.4-2,1.2c-0.9-0.2-1.4-1.1-1.2-2c0.2-0.9,1.1-1.4,2-1.2C323,10.7,323.5,11.6,323.3,12.5z M338.6,21.1l2-1.1l0-0.3
	c-0.1-0.4-0.1-0.7-0.3-1.1l-0.1-0.3l-2.3-0.1c-0.3,0-0.5-0.1-0.6-0.3c-0.1-0.2-0.1-0.4,0-0.7l0.9-2.1l-0.2-0.2
	c-0.3-0.2-0.6-0.5-0.9-0.7l-0.3-0.2l-1.8,1.4c-0.1,0.1-0.2,0.1-0.2,0.1c-0.2,0.1-0.4,0.1-0.5,0c-0.2-0.1-0.3-0.3-0.4-0.5l-0.7-2.2
	l-0.3,0c-0.4,0-0.7,0-1.1,0.1l-0.3,0l-0.5,2.3c-0.1,0.3-0.2,0.5-0.4,0.6s-0.4,0-0.7-0.1l-2-1.2l-0.2,0.2c-0.3,0.2-0.6,0.5-0.8,0.7
	l-0.2,0.2l1.1,2c0.1,0.2,0.2,0.5,0.1,0.6c-0.1,0.1-0.2,0.3-0.4,0.3c-0.1,0-0.2,0.1-0.3,0.1l-2.3,0.3l-0.1,0.3
	c-0.1,0.4-0.1,0.7-0.1,1.1l0,0.3l2.2,0.9c0.3,0.1,0.5,0.3,0.5,0.5c0,0.2,0,0.4-0.2,0.6l-1.5,1.7l0.1,0.3c0.2,0.3,0.4,0.6,0.6,0.9
	l0.2,0.2l2.2-0.7c0.3-0.1,0.5-0.1,0.7,0.1c0.2,0.1,0.3,0.4,0.3,0.6l-0.1,2.2l0.3,0.1c0.4,0.1,0.7,0.2,1.1,0.3l0.3,0.1l1.2-1.9
	c0.1-0.2,0.2-0.3,0.4-0.4c0.3-0.1,0.6,0,0.8,0.3l1.4,1.7l0.3-0.1c0.2-0.1,0.4-0.1,0.5-0.2c0.2-0.1,0.4-0.2,0.5-0.2l0.3-0.1l-0.3-2.2
	c-0.1-0.4,0.1-0.7,0.3-0.8c0.1-0.1,0.3-0.1,0.5,0l2.2,0.5l0.2-0.2c0.2-0.3,0.4-0.7,0.5-1l0.1-0.3l-1.7-1.5c-0.2-0.2-0.3-0.4-0.3-0.6
	C338.2,21.4,338.3,21.2,338.6,21.1z M333.8,23.5c-1.5,0.6-3.2-0.1-3.8-1.5c-0.6-1.4,0.1-3.1,1.5-3.7c1.5-0.6,3.2,0.1,3.8,1.5
	C335.9,21.2,335.2,22.9,333.8,23.5z M321.1,25l2.3-1.2l0-0.3c0-0.2-0.1-0.5-0.1-0.7c-0.1-0.2-0.1-0.5-0.2-0.7l-0.1-0.3l-2.6-0.1
	c-0.4,0-0.7-0.2-0.9-0.4c-0.2-0.2-0.1-0.6,0-1l1.1-2.3l-0.2-0.2c-0.3-0.3-0.7-0.6-1.1-0.9l-0.2-0.2l-2.1,1.5
	c-0.2,0.1-0.3,0.2-0.5,0.2c-0.2,0.1-0.4,0-0.6-0.1c-0.2-0.1-0.4-0.4-0.4-0.7l-0.5-2.5l-0.3,0c-0.5-0.1-1-0.1-1.5-0.1h-0.3l-0.9,2.4
	c-0.1,0.4-0.4,0.7-0.7,0.7c-0.3,0.1-0.6,0-0.9-0.3l-1.9-1.7l-0.3,0.1c-0.4,0.2-0.8,0.5-1.2,0.8l-0.2,0.2l0.8,2.4
	c0.1,0.3,0.1,0.6,0,0.9c-0.1,0.2-0.3,0.3-0.5,0.3c-0.2,0-0.3,0-0.5,0l-2.6-0.3l-0.1,0.3c-0.2,0.4-0.4,0.9-0.6,1.3l-0.1,0.3l2.1,1.5
	c0.3,0.3,0.5,0.6,0.5,0.8c0,0.3-0.2,0.6-0.6,0.8l-2.3,1.2l0.1,0.3c0,0.2,0.1,0.5,0.1,0.7c0.1,0.2,0.1,0.5,0.2,0.7l0.1,0.3l2.6,0.1
	c0.4,0,0.7,0.2,0.9,0.4c0.2,0.2,0.1,0.6,0,1l-1.1,2.3l0.2,0.2c0.3,0.3,0.7,0.6,1.1,0.9l0.2,0.2l2.1-1.5c0.2-0.1,0.3-0.2,0.5-0.2
	c0.2-0.1,0.4,0,0.6,0.1c0.2,0.1,0.4,0.4,0.4,0.7l0.5,2.5l0.3,0c0.5,0.1,1,0.1,1.5,0.1l0.3,0l0.9-2.4c0.1-0.4,0.4-0.6,0.7-0.7
	c0.3-0.1,0.6,0,0.9,0.3l1.9,1.7l0.3-0.1c0.4-0.2,0.9-0.5,1.2-0.8l0.2-0.2l-0.8-2.4c-0.1-0.3-0.1-0.6,0-0.9c0.1-0.2,0.3-0.3,0.5-0.3
	c0.2,0,0.3,0,0.5,0l2.6,0.3l0.1-0.3c0.2-0.4,0.4-0.9,0.6-1.3l0.1-0.3l-2.1-1.5c-0.3-0.3-0.5-0.6-0.5-0.8
	C320.5,25.5,320.7,25.2,321.1,25z M313.9,29c-2.1,0.5-4.2-0.7-4.7-2.8c-0.5-2,0.8-4.1,2.8-4.6c2.1-0.5,4.2,0.7,4.7,2.8
	C317.3,26.4,316,28.5,313.9,29z"/>
<linearGradient id="SVGID_6_" gradientUnits="userSpaceOnUse" x1="408.5054" y1="0" x2="408.5054" y2="46.9897">
	<stop  offset="0" style="stop-color:#7CBDE0"/>
	<stop  offset="1" style="stop-color:#47ABDF"/>
</linearGradient>
<path fill="url(#SVGID_6_)" d="M431.6,0.4c-9-1.8-19.5,2.7-25.1,8.3c-5.6,5.6-8.3,8.3-12.6,12.6c-4.3,4.3-6.4,9.1-8.9,15.8
	c5.6-3.7,10-3.2,11.5-1.6c1.6,1.6,2,5.9-1.6,11.5c6.7-2.5,11.5-4.6,15.8-8.9c4.3-4.3,7-7,12.6-12.6C428.9,19.9,433.4,9.4,431.6,0.4z
	 M409.1,22.9c-2.2-2.2-2.2-5.9,0-8.1s5.9-2.3,8.1,0c2.2,2.2,2.2,5.9,0,8.1C415,25.1,411.3,25.2,409.1,22.9z"/>
<g>
	<g>
		<path fill="#93C5E0" d="M393.5,38.1c-3.4-3.4-11.5,2.6-19,10.1l8.9,8.9C390.9,49.6,396.8,41.5,393.5,38.1z M366.6,38.8l6.9,6.9
			c7.5-7.5,8.7-9.2,11.5-15.4C378.3,30.1,374.2,31.3,366.6,38.8z M401.3,46.6c-6.2,2.8-7.9,3.9-15.4,11.5l6.9,6.9
			C400.3,57.4,401.4,53.3,401.3,46.6z"/>
	</g>
</g>
<g>
	<g>
		<linearGradient id="SVGID_7_" gradientUnits="userSpaceOnUse" x1="374.9985" y1="41.9702" x2="374.9985" y2="71.9697">
			<stop  offset="0" style="stop-color:#7CBDE0"/>
			<stop  offset="1" style="stop-color:#47ABDF"/>
		</linearGradient>
		<path fill="url(#SVGID_7_)" d="M370.8,44.7l-2.7-2.7c0,0-7.4,0.6-8.1,10.8C370.2,52.1,370.8,44.7,370.8,44.7z M367.6,64.3
			c10.2-0.8,10.8-8.1,10.8-8.1l-2.7-2.7C375.8,53.5,368.4,54.1,367.6,64.3z M387.3,61.1c0,0-7.4,0.6-8.1,10.8
			c10.2-0.8,10.8-8.1,10.8-8.1L387.3,61.1z"/>
	</g>
</g>
<g>
	<linearGradient id="SVGID_8_" gradientUnits="userSpaceOnUse" x1="35.1963" y1="164" x2="35.1963" y2="195.3877">
		<stop  offset="0" style="stop-color:#7CBDE0"/>
		<stop  offset="1" style="stop-color:#47ABDF"/>
	</linearGradient>
	<path fill="url(#SVGID_8_)" d="M35.2,164C29,164,24,169.1,24,175.3c0,2.3,0.7,4.5,1.9,6.3c0.4,0.7,1.1,1.9,2.4,4
		c0.9,1.3,1.8,3,1.8,4.6v3.2c0,0.3,0.8,1.9,2.8,1.9h0.7c1.7,0,3.2,0,3.2,0h0.7c2,0,2.8-1.6,2.8-1.9v-3.2c0-1.6,0.9-3.3,1.8-4.6
		c1.4-2.2,2.1-3.4,2.5-4.1c1.2-1.8,1.9-3.9,1.9-6.2C46.4,169.1,41.4,164,35.2,164z"/>
	<path fill="#93C5E0" d="M39.2,199.2h-7.9c-0.6,0-1,0.4-1,0.9c0,0.5,0.4,0.9,1,0.9h7.9c0.6,0,1-0.4,1-0.9
		C40.2,199.6,39.7,199.2,39.2,199.2z M39.1,201.6h-7.9c-0.6,0-1,0.4-1,0.9c0,0.5,0.5,0.9,1,0.9h7.9c0.6,0,1-0.4,1-0.9
		C40.2,202.1,39.7,201.6,39.1,201.6z M32.1,204.8l0.6,0.6c0,0,0.7,0.6,1.2,0.6h2.5c0.5,0,1.2-0.6,1.2-0.6l0.6-0.6H32.1z M39.2,196.7
		h-7.9c-0.6,0-1,0.4-1,0.9c0,0.5,0.4,0.9,1,0.9h7.9c0.6,0,1-0.4,1-0.9C40.2,197.1,39.7,196.7,39.2,196.7z"/>
</g>
<g>
	<linearGradient id="SVGID_9_" gradientUnits="userSpaceOnUse" x1="108.0073" y1="179.4048" x2="108.0073" y2="190.5962">
		<stop  offset="0" style="stop-color:#7CBDE0"/>
		<stop  offset="1" style="stop-color:#47ABDF"/>
	</linearGradient>
	<path fill="url(#SVGID_9_)" d="M108,179.4c-3.1,0-5.6,2.5-5.6,5.6s2.5,5.6,5.6,5.6c3.1,0,5.6-2.5,5.6-5.6S111.1,179.4,108,179.4z"
		/>
	<path fill="#93C5E0" d="M128.6,178.7c-0.7-2.2-2.3-4.1-4.6-5.3c-0.3-0.2-0.7-0.3-1-0.5c-0.7-0.3-1.4-0.5-2.1-0.7
		c-0.2-0.8-0.4-1.5-0.7-2.1c-0.2-0.3-0.3-0.7-0.5-1c-1.3-2.4-3.1-3.9-5.3-4.6c-1.6-0.5-3.4-0.5-5.1,0c-1.6,0.5-3.2,1.4-4.7,2.7
		c-0.5,0.5-1.1,1-1.6,1.6c-0.8-0.2-1.5-0.3-2.2-0.4c-1.9-0.2-3.8-0.1-5.4,0.4c-1.8,0.5-3.2,1.5-4.2,2.8c-1.5,1.8-2.1,4.2-1.8,6.8
		c0,0.4,0.1,0.7,0.2,1.1c0.1,0.7,0.3,1.4,0.6,2.2c0.3,0.9,0.7,1.9,1.2,2.8c0.3,0.6,0.7,1.2,1.1,1.9c0.1,0.2,0.3,0.4,0.4,0.7
		c0.5,0.7,1.1,1.5,1.7,2.2c-0.1,0.9-0.1,1.9-0.1,2.8c0,0.3,0,0.5,0,0.8c0,0.7,0.1,1.5,0.1,2.2c-0.5-0.2-0.9-0.4-1.3-0.6
		c-0.2-0.1-0.5-0.3-0.7-0.4c-1.3-0.9-2.2-2-2.6-3.3c-0.4-1.3-0.3-2.7,0.3-4.2c-0.6-1-1.1-2-1.5-2.9c-0.2,0.3-0.4,0.6-0.6,1
		c-1.2,2.4-1.5,4.8-0.8,7c0.7,2.2,2.3,4.1,4.6,5.3c0.3,0.2,0.7,0.3,1,0.5c0.7,0.3,1.4,0.5,2.1,0.7c0.2,0.8,0.4,1.5,0.7,2.1
		c0.2,0.3,0.3,0.7,0.5,1c1.3,2.4,3.1,3.9,5.3,4.6c1.6,0.5,3.3,0.5,5.1,0c1.6-0.5,3.2-1.4,4.7-2.7c0.5-0.5,1.1-1,1.6-1.6
		c0.7-0.7,1.3-1.5,1.9-2.4c0.4-0.5,0.7-1.1,1.1-1.6c0-0.1,0.1-0.1,0.1-0.2c0.5-0.8,1-1.7,1.4-2.6c1-0.5,1.9-1,2.8-1.5
		c0.6-0.4,1.1-0.7,1.6-1.1c0.6-0.4,1.2-0.9,1.7-1.3c0.1,0.5,0.2,1,0.3,1.4c0,0.3,0,0.6,0,0.8c0,1.6-0.4,2.9-1.3,4
		c-0.7,0.9-1.7,1.6-2.9,1.9v0c-0.8,0.3-1.7,0.4-2.7,0.4c-0.6,0.9-1.2,1.8-1.9,2.6c1.9,0.2,3.8,0.1,5.4-0.4c0,0,0,0,0,0
		c1.7-0.5,3.2-1.5,4.2-2.8c1.5-1.8,2.1-4.2,1.8-6.8c0-0.4-0.1-0.7-0.2-1.1c-0.1-0.7-0.3-1.5-0.6-2.2c-0.3-0.9-0.7-1.9-1.2-2.8
		c-0.3-0.6-0.7-1.2-1.1-1.9c-0.1-0.2-0.3-0.4-0.4-0.7c-0.5-0.7-1.1-1.5-1.7-2.2c0.1-0.9,0.1-1.9,0.1-2.8c0-0.3,0-0.5,0-0.8
		c0-0.7-0.1-1.5-0.1-2.2c0.5,0.2,0.9,0.4,1.3,0.6c0.2,0.1,0.5,0.3,0.7,0.4c1.3,0.9,2.2,2,2.6,3.3c0.4,1.3,0.3,2.7-0.3,4.2
		c0.6,1,1.1,2,1.5,2.9c0.2-0.3,0.4-0.6,0.6-1C129.1,183.3,129.3,180.9,128.6,178.7z M121.8,186c0.2,0.3,0.4,0.6,0.5,0.9
		c0.1,0.3,0.3,0.6,0.4,0.9c-0.3,0.3-0.6,0.5-0.9,0.8c-0.2,0.2-0.4,0.4-0.7,0.5c-0.6,0.5-1.3,0.9-2,1.4c-1.1,0.7-2.4,1.4-3.7,2
		c-0.9,0.4-1.8,0.8-2.7,1.1c-0.6,0.2-1.2,0.4-1.8,0.6l-0.1,0l-0.1,0c-0.6,0.2-1.2,0.4-1.9,0.5c-1,0.2-1.9,0.5-2.9,0.6
		c-1.4,0.2-2.8,0.4-4.2,0.4c-0.8,0-1.6,0-2.4,0c0.1,0.3,0.1,0.5,0.2,0.8c0.2,0.7,0.4,1.4,0.7,2c0.6,0,1.3,0,2,0c1,0,2.1-0.1,3.2-0.3
		c1.4-0.2,2.8-0.5,4.3-0.9c0.2-0.1,0.5-0.1,0.7-0.2c0.3-0.1,0.7-0.2,1-0.3l0.2-0.1c0.4-0.1,0.7-0.2,1-0.3c0.2-0.1,0.5-0.2,0.7-0.3
		c-0.1,0.1-0.2,0.3-0.3,0.4c-0.4,0.6-0.8,1.1-1.2,1.7c-0.2,0.2-0.3,0.4-0.5,0.6c-0.5,0.6-1,1.1-1.5,1.6c-0.6,0.5-1.1,1-1.7,1.4
		c-0.8,0.5-1.6,0.9-2.4,1.2c-1.2,0.4-2.4,0.4-3.5,0c-1.3-0.4-2.4-1.3-3.3-2.6c-0.2-0.2-0.3-0.4-0.4-0.7c-0.2-0.4-0.4-0.9-0.6-1.3
		c-0.3-0.9-0.6-1.8-0.7-2.8c-0.1-0.3-0.1-0.6-0.1-0.9c0-0.3-0.1-0.7-0.1-1.1c0-0.6-0.1-1.1-0.1-1.7c0.6,0.6,1.3,1.2,2,1.8
		c0.1,0.1,0.1,0.1,0.2,0.2c1.3,0.1,2.8,0.1,4.3-0.1c-0.6-0.4-1.1-0.8-1.6-1.3c-1-0.8-1.9-1.6-2.8-2.5c-0.6-0.6-1.2-1.2-1.8-1.8
		c0.1-0.8,0.3-1.7,0.4-2.5c0.2-1.2,0.6-2.4,0.9-3.6c0.2-0.7,0.4-1.3,0.7-2c0.3-0.9,0.7-1.8,1.1-2.7c0.6-1.3,1.3-2.6,2-3.7
		c0.1-0.1,0.2-0.3,0.3-0.4c-1-0.3-1.9-0.5-2.8-0.5c-0.5,0.8-1,1.7-1.4,2.6c-0.6,1.3-1.2,2.6-1.7,4c-0.2,0.6-0.4,1.3-0.6,1.9
		c-0.1,0.4-0.2,0.8-0.3,1.2c0,0.1,0,0.2-0.1,0.2c-0.2,0.9-0.4,1.8-0.6,2.6c-0.3-0.5-0.6-1-0.9-1.4c-0.2-0.3-0.4-0.6-0.5-0.9
		c-0.1-0.3-0.3-0.6-0.4-0.9c-0.4-0.9-0.8-1.8-1-2.7c-0.1-0.5-0.2-1-0.3-1.4c0-0.3,0-0.6,0-0.8c0-1.6,0.4-2.9,1.3-4
		c0.7-0.9,1.7-1.6,2.9-1.9c0.8-0.3,1.7-0.4,2.7-0.4c0.7,0,1.4,0.1,2.2,0.2c0.7,0.1,1.4,0.3,2.1,0.5c0.2,0.1,0.5,0.1,0.7,0.2
		c0.6,0.2,1.3,0.4,1.9,0.7c0.1,0.1,0.3,0.1,0.4,0.2c1.2,0.5,2.5,1.2,3.7,1.9c0.8,0.5,1.6,1,2.4,1.6c0.6,0.4,1.1,0.8,1.6,1.3
		c1,0.8,1.9,1.6,2.8,2.5c0.1-1.3,0.1-2.5,0-3.6c-0.1-0.1-0.1-0.1-0.2-0.2c-0.3-0.3-0.6-0.5-0.9-0.8c-0.5-0.4-1.1-0.8-1.6-1.2
		c-1.2-0.9-2.4-1.7-3.6-2.4c-0.9-0.5-1.8-1-2.7-1.4c-0.1,0-0.1-0.1-0.2-0.1c-0.6-0.3-1.2-0.5-1.8-0.7c0.6-0.5,1.1-1,1.7-1.4
		c0.8-0.5,1.6-0.9,2.4-1.2c1.2-0.4,2.4-0.4,3.5,0c1.3,0.4,2.4,1.3,3.3,2.6c0.2,0.2,0.3,0.4,0.4,0.7c0.2,0.4,0.4,0.9,0.6,1.3
		c0.3,0.9,0.6,1.8,0.7,2.8c0.1,0.3,0.1,0.6,0.1,0.9c0,0.4,0.1,0.7,0.1,1.1c0,0.6,0.1,1.1,0.1,1.7c0,1.2-0.1,2.4-0.3,3.6
		c-0.1,0.8-0.2,1.7-0.4,2.5c-0.2,1.2-0.6,2.4-0.9,3.6c-0.2,0.7-0.4,1.3-0.7,2c1.3-0.7,2.5-1.5,3.6-2.3c0-0.1,0-0.2,0.1-0.2
		c0.2-0.9,0.4-1.8,0.6-2.7C121.2,185.1,121.5,185.5,121.8,186z"/>
</g>
<g>
	<linearGradient id="SVGID_10_" gradientUnits="userSpaceOnUse" x1="179.0015" y1="174.8345" x2="179.0015" y2="201.9644">
		<stop  offset="0" style="stop-color:#7CBDE0"/>
		<stop  offset="1" style="stop-color:#47ABDF"/>
	</linearGradient>
	<path fill="url(#SVGID_10_)" d="M175.5,182.1c0,1.2,1,2.2,2.2,2.2c1.2,0,2.2-1,2.2-2.2c0-1.2-1-2.2-2.2-2.2
		C176.4,179.9,175.5,180.9,175.5,182.1z M180.9,175.9c0-0.6-0.5-1.1-1.1-1.1s-1.1,0.5-1.1,1.1s0.5,1.1,1.1,1.1
		S180.9,176.6,180.9,175.9z M182.6,183.8c-0.8,0-1.5,0.7-1.5,1.5s0.7,1.5,1.5,1.5s1.5-0.7,1.5-1.5S183.5,183.8,182.6,183.8z
		 M171.4,186.4c-1.4,0-2.1,1.4-2.2,1.6c-0.4,1.1-0.6,2.3-0.6,3.5c0,5.8,4.6,10.4,10.4,10.4c5.7,0,10.4-4.7,10.4-10.4
		c0-1.3-0.2-2.5-0.7-3.7c-0.4-0.9-1-1.5-2.1-1.5c-1.6,0-2.3,2.5-4,2.5c-1.6,0-1.7-2.2-3.5-2.2c-1.9,0-2,2.1-3.8,2.1
		C173.8,188.7,173.4,186.4,171.4,186.4z M182.6,195.3c0.7,0,1.2,0.5,1.2,1.2c0,0.7-0.5,1.2-1.2,1.2c-0.7,0-1.2-0.5-1.2-1.2
		C181.4,195.8,181.9,195.3,182.6,195.3z M179.1,190.1c1.2,0,2.2,1,2.2,2.2s-1,2.2-2.2,2.2s-2.2-1-2.2-2.2S177.9,190.1,179.1,190.1z
		 M177.8,197.7c0.7,0,1.2,0.5,1.2,1.2s-0.5,1.2-1.2,1.2s-1.2-0.5-1.2-1.2S177.1,197.7,177.8,197.7z"/>
	<path fill="#93C5E0" d="M172.1,166.5h13.9c0.6,0,1.1-0.6,1.1-1.2c0-0.7-0.5-1.2-1.1-1.2h-13.9c-0.6,0-1.1,0.6-1.1,1.2
		C171,165.9,171.5,166.5,172.1,166.5z M185.4,179.4v-11.7h-2v12.9l1.1,0.6c4,2.1,6.5,6.2,6.5,10.7c0,6.7-5.4,12.1-12,12.1
		c-6.6,0-12-5.4-12-12.1c0-4.5,2.5-8.7,6.5-10.7l1.1-0.6v-12.9h-2v11.7c-4.5,2.3-7.6,7.1-7.6,12.5c0,7.8,6.3,14.1,14,14.1
		c7.7,0,14-6.3,14-14.1C193,186.5,189.9,181.7,185.4,179.4z"/>
</g>
<g>
	<linearGradient id="SVGID_11_" gradientUnits="userSpaceOnUse" x1="252.605" y1="164" x2="252.605" y2="192.52">
		<stop  offset="0" style="stop-color:#7CBDE0"/>
		<stop  offset="1" style="stop-color:#47ABDF"/>
	</linearGradient>
	<path fill="url(#SVGID_11_)" d="M259.1,190.3c2,0,3.7,0.9,5.1,2.2c-1-5.6-4.4-10.3-9.2-13.1c-0.7,0.6-1.7,0.9-2.7,0.9
		c-2.3,0-4.2-1.9-4.2-4.2c0-2.2,1.7-4,3.9-4.1l0.3-1.6c0.2-0.8-0.4-1.6-1.2-1.8l-4.9-1c-0.8-0.2-1.7,0.4-1.8,1.2l-3.4,16.4
		c-0.2,0.8,0.4,1.6,1.2,1.8l0.7,0.1l-0.2,4.8l1.9,0.4l1.7-4.5l0.7,0.1c0.8,0.2,1.7-0.4,1.8-1.2l1-5.1
		C254.1,183.2,257.5,186.3,259.1,190.3C259.1,190.3,259.1,190.3,259.1,190.3z M250.8,167.7l0.6-2.9l-3.9-0.8l-0.6,2.9L250.8,167.7z"
		/>
	<g>
		<g>
			<path fill="#93C5E0" d="M258.8,191.6c-7,0,0.1,10.2-16.6,10.2c-9.2,0-8.3,4.2-8.3,4.2h34C268,206,265.8,191.6,258.8,191.6z
				 M248.7,195.1l-11.1-2.3l-0.4,1.9l11.1,2.3L248.7,195.1z M242.3,200.2c1.1,0,2.1,0,3-0.1l0.4-2.1l-6.7-1.4l-0.8,3.9
				C239.4,200.3,240.8,200.2,242.3,200.2z M252.2,179.1c0.2,0,0.4,0,0.6-0.1c1.3-0.3,2.3-1.5,2.3-2.9c0-1.6-1.3-2.9-2.9-2.9
				c-0.4,0-0.7,0.1-1,0.2c-1.1,0.4-1.9,1.5-1.9,2.7C249.3,177.8,250.6,179.1,252.2,179.1z"/>
		</g>
	</g>
</g>
<g>
	<path fill="#93C5E0" d="M336.2,182.5c-0.7-2.1,0.9-3.7,1-6.1c0,0,0,0,0,0c0,0,0,0,0,0c0-0.1,0-0.3,0-0.4
		c-0.3-7.4-6.8-11.9-15.4-11.9c-8.7,0-15.8,6.2-15.8,13.9c0,1.6,0.2,3,0.7,4.4c0.3,1,0.7,1.8,1.3,3c0.7,1.3,0.9,1.7,1.4,2.6
		c1.3,2.4,2.6,4.7,2.5,6.7c0,2.5-2.4,8.1-2.4,8.1s4.1,1.8,7.7,2.7c4.1,1,8.6,0.5,8.6,0.5s-0.2-5.8,3.2-6.6c0,0,4.1,0,4.8,0
		c1.2,0,2.2-0.6,2.3-1.9c0.2-1.3-1-2-0.6-2.9c0.2-0.5,0.9-0.3,1.2-1.1c0.1-0.5-0.5-1.1-0.5-1.1s1.2-0.3,1.3-0.9
		c0.1-0.6-1.1-0.7-1.1-1.5c0-1.2,3-0.4,3.6-1.5C340.6,187.1,336.7,184.2,336.2,182.5z M334.8,176.4c0,0.6-0.2,1.3-0.5,2
		c-0.8,1.9-5.8,6.2-12.1,7.5c-5.7,1.1-10,0.4-12.1-2.3c-0.7-1-1.9-3.4-1.9-5.7c0-6.4,6-11.6,13.4-11.6c6.3,0,12.8,3,13.1,9.6
		C334.8,176.1,334.8,176.3,334.8,176.4C334.8,176.3,334.8,176.4,334.8,176.4z"/>
	<linearGradient id="SVGID_12_" gradientUnits="userSpaceOnUse" x1="321.6421" y1="167.8975" x2="321.6421" y2="184.7236">
		<stop  offset="0" style="stop-color:#7CBDE0"/>
		<stop  offset="1" style="stop-color:#47ABDF"/>
	</linearGradient>
	<path fill="url(#SVGID_12_)" d="M324.7,172.2c0-0.1,0.1-0.3,0.1-0.4c0-0.1,0.1-0.3,0.1-0.4l-0.9-0.6c-0.2-0.2-0.3-0.5-0.2-0.7
		l0.4-1c-0.2-0.2-0.4-0.4-0.6-0.6l-1,0.4c-0.2,0.1-0.6,0-0.7-0.2l-0.7-0.8c-0.3,0-0.5,0.1-0.8,0.2l-0.1,1.1c0,0.3-0.3,0.5-0.5,0.5
		l-1.1,0.2c0,0.1-0.1,0.3-0.1,0.4c0,0.1-0.1,0.3-0.1,0.4l0.9,0.6c0.2,0.2,0.3,0.5,0.2,0.7l-0.4,1c0.2,0.2,0.4,0.4,0.6,0.6l1-0.4
		c0.2-0.1,0.6,0,0.7,0.2l0.7,0.8c0.3,0,0.5-0.1,0.8-0.2l0.1-1.1c0-0.3,0.3-0.5,0.5-0.5L324.7,172.2z M322.6,171.3
		c-0.1,0.5-0.6,0.8-1.2,0.7c-0.5-0.1-0.8-0.6-0.7-1.1c0.1-0.5,0.6-0.8,1.2-0.7C322.4,170.3,322.7,170.8,322.6,171.3z M331.4,176.3
		l1.2-0.6l0-0.2c0-0.2-0.1-0.4-0.1-0.6l0-0.2l-1.3,0c-0.2,0-0.3-0.1-0.4-0.2c-0.1-0.1-0.1-0.2,0-0.4l0.5-1.2l-0.1-0.1
		c-0.2-0.1-0.3-0.3-0.5-0.4l-0.1-0.1l-1.1,0.8c0,0-0.1,0.1-0.1,0.1c-0.1,0-0.2,0-0.3,0c-0.1,0-0.2-0.1-0.2-0.3l-0.4-1.3l-0.2,0
		c-0.2,0-0.4,0-0.6,0l-0.2,0L327,173c0,0.2-0.1,0.3-0.2,0.3s-0.3,0-0.4-0.1l-1.1-0.7l-0.1,0.1c-0.2,0.1-0.3,0.3-0.5,0.4l-0.1,0.1
		l0.6,1.2c0.1,0.1,0.1,0.3,0.1,0.4c0,0.1-0.1,0.2-0.2,0.2c0,0-0.1,0-0.2,0l-1.3,0.2l0,0.2c0,0.2-0.1,0.4-0.1,0.6l0,0.2l1.2,0.5
		c0.2,0.1,0.3,0.2,0.3,0.3c0,0.1,0,0.3-0.1,0.4l-0.9,1l0.1,0.1c0.1,0.2,0.2,0.4,0.4,0.5l0.1,0.1l1.3-0.4c0.2-0.1,0.3,0,0.4,0
		c0.1,0.1,0.2,0.2,0.1,0.4l0,1.3l0.2,0.1c0.2,0.1,0.4,0.1,0.6,0.2l0.2,0l0.7-1.1c0.1-0.1,0.1-0.2,0.2-0.2c0.2-0.1,0.3,0,0.5,0.2
		l0.8,1l0.2-0.1c0.1,0,0.2-0.1,0.3-0.1c0.1,0,0.2-0.1,0.3-0.1l0.2-0.1l-0.2-1.3c0-0.2,0-0.4,0.2-0.4c0.1,0,0.2,0,0.3,0l1.3,0.3
		l0.1-0.1c0.1-0.2,0.2-0.4,0.3-0.6l0.1-0.2l-1-0.9c-0.1-0.1-0.2-0.2-0.2-0.4C331.2,176.5,331.3,176.4,331.4,176.3z M328.6,177.7
		c-0.8,0.4-1.8,0-2.2-0.9c-0.4-0.8,0-1.8,0.9-2.2c0.8-0.4,1.8,0,2.2,0.9C329.9,176.4,329.5,177.4,328.6,177.7z M321.3,178.6l1.3-0.7
		l0-0.2c0-0.1-0.1-0.3-0.1-0.4c0-0.1-0.1-0.3-0.1-0.4l-0.1-0.2l-1.5,0c-0.2,0-0.4-0.1-0.5-0.2c-0.1-0.1-0.1-0.3,0-0.6l0.6-1.3
		l-0.1-0.1c-0.2-0.2-0.4-0.4-0.6-0.5l-0.1-0.1l-1.2,0.8c-0.1,0.1-0.2,0.1-0.3,0.1c-0.1,0-0.3,0-0.3,0c-0.1-0.1-0.2-0.2-0.3-0.4
		l-0.3-1.5l-0.2,0c-0.3,0-0.6-0.1-0.8-0.1h-0.2l-0.5,1.4c-0.1,0.2-0.2,0.4-0.4,0.4c-0.2,0-0.4,0-0.5-0.2l-1.1-1l-0.2,0.1
		c-0.2,0.1-0.5,0.3-0.7,0.4L313,174l0.4,1.4c0.1,0.2,0.1,0.4,0,0.5c-0.1,0.1-0.2,0.2-0.3,0.2c-0.1,0-0.2,0-0.3,0l-1.5-0.2l-0.1,0.2
		c-0.1,0.3-0.2,0.5-0.3,0.8l-0.1,0.2l1.2,0.9c0.2,0.1,0.3,0.3,0.3,0.5c0,0.2-0.1,0.3-0.4,0.4l-1.3,0.7l0,0.2c0,0.1,0.1,0.3,0.1,0.4
		c0,0.1,0.1,0.3,0.1,0.4l0.1,0.2l1.5,0c0.2,0,0.4,0.1,0.5,0.2c0.1,0.1,0.1,0.3,0,0.6l-0.6,1.3l0.1,0.1c0.2,0.2,0.4,0.4,0.6,0.5
		l0.1,0.1l1.2-0.8c0.1-0.1,0.2-0.1,0.3-0.1c0.1,0,0.3,0,0.3,0c0.1,0.1,0.2,0.2,0.3,0.4l0.3,1.5l0.2,0c0.3,0,0.6,0.1,0.8,0.1l0.2,0
		l0.5-1.4c0.1-0.2,0.2-0.4,0.4-0.4c0.2,0,0.4,0,0.5,0.2l1.1,1l0.2-0.1c0.2-0.1,0.5-0.3,0.7-0.4l0.1-0.1l-0.4-1.4
		c-0.1-0.2-0.1-0.4,0-0.5c0.1-0.1,0.2-0.2,0.3-0.2c0.1,0,0.2,0,0.3,0l1.5,0.2l0.1-0.2c0.1-0.3,0.2-0.5,0.3-0.8l0.1-0.2l-1.2-0.9
		c-0.2-0.1-0.3-0.3-0.3-0.5C321,178.9,321.1,178.7,321.3,178.6z M317.2,180.9c-1.2,0.3-2.4-0.4-2.7-1.6c-0.3-1.2,0.4-2.4,1.6-2.7
		c1.2-0.3,2.4,0.4,2.7,1.6C319.1,179.4,318.4,180.6,317.2,180.9z"/>
</g>
<g>
	<linearGradient id="SVGID_13_" gradientUnits="userSpaceOnUse" x1="402.2944" y1="164" x2="402.2944" y2="191.4224">
		<stop  offset="0" style="stop-color:#7CBDE0"/>
		<stop  offset="1" style="stop-color:#47ABDF"/>
	</linearGradient>
	<path fill="url(#SVGID_13_)" d="M415.8,164.2c-5.3-1-11.4,1.6-14.6,4.9c-3.3,3.3-4.8,4.8-7.3,7.3c-2.5,2.5-3.7,5.3-5.2,9.2
		c3.3-2.1,5.8-1.9,6.7-1c0.9,0.9,1.2,3.4-1,6.7c3.9-1.5,6.7-2.7,9.2-5.2c2.5-2.5,4.1-4.1,7.3-7.3
		C414.2,175.6,416.8,169.5,415.8,164.2z M402.6,177.4c-1.3-1.3-1.3-3.4,0-4.7c1.3-1.3,3.4-1.3,4.7,0c1.3,1.3,1.3,3.4,0,4.7
		C406.1,178.7,403.9,178.7,402.6,177.4z"/>
	<g>
		<g>
			<path fill="#93C5E0" d="M393.5,186.2c-2-2-6.7,1.5-11.1,5.9l5.2,5.2C392,192.9,395.5,188.2,393.5,186.2z M377.9,186.7l4,4
				c4.4-4.4,5.1-5.4,6.7-9C384.7,181.6,382.3,182.3,377.9,186.7z M398.1,191.2c-3.6,1.6-4.6,2.3-9,6.7l4,4
				C397.5,197.5,398.2,195.1,398.1,191.2z"/>
		</g>
	</g>
	<g>
		<g>
			
				<linearGradient id="SVGID_14_" gradientUnits="userSpaceOnUse" x1="217.7495" y1="178.4932" x2="217.7495" y2="196.0003" gradientTransform="matrix(1 0 0 1 165 10)">
				<stop  offset="0" style="stop-color:#7CBDE0"/>
				<stop  offset="1" style="stop-color:#47ABDF"/>
			</linearGradient>
			<path fill="url(#SVGID_14_)" d="M380.3,190.1l-1.6-1.6c0,0-4.3,0.4-4.8,6.3C380,194.4,380.3,190.1,380.3,190.1z M378.5,201.5
				c6-0.4,6.3-4.8,6.3-4.8l-1.6-1.6C383.2,195.2,378.9,195.6,378.5,201.5z M389.9,199.7c0,0-4.3,0.4-4.8,6.3c6-0.4,6.3-4.8,6.3-4.8
				L389.9,199.7z"/>
		</g>
	</g>
</g>
<path fill="#FFFFFF" d="M36.7,82c-10.6,0-19.2,8.7-19.2,19.4c0,4,1.2,7.8,3.3,10.9c0.7,1.3,1.8,3.3,4.2,6.9c1.5,2.3,3,5.1,3,7.9v5.4
	c0,0.6,1.4,3.3,4.8,3.3H34c3,0,5.5,0,5.5,0h1.1c3.5,0,4.8-2.7,4.8-3.3V127c0-2.8,1.5-5.7,3-7.9c2.5-3.8,3.7-5.8,4.3-7.1
	c2-3.1,3.2-6.7,3.2-10.7C55.9,90.7,47.3,82,36.7,82z"/>
<path opacity="0.3" fill="#FFFFFF" d="M43.5,142.3H29.9c-1,0-1.7,0.7-1.7,1.6c0,0.9,0.8,1.6,1.7,1.6h13.6c1,0,1.7-0.7,1.7-1.6
	C45.2,143,44.5,142.3,43.5,142.3z M43.5,146.5H29.9c-1,0-1.8,0.7-1.8,1.6s0.8,1.6,1.8,1.6h13.5c1,0,1.8-0.7,1.8-1.6
	S44.4,146.5,43.5,146.5z M31.4,151.9l1.1,1.1c0,0,1.2,1.1,2.1,1.1h4.3c0.9,0,2.1-1.1,2.1-1.1l1.1-1.1H31.4z M43.5,138H29.9
	c-1,0-1.7,0.7-1.7,1.6c0,0.9,0.8,1.6,1.7,1.6h13.6c1,0,1.7-0.7,1.7-1.6C45.2,138.7,44.5,138,43.5,138z"/>
<path fill="#FFFFFF" d="M108,108.4c-5.3,0-9.6,4.3-9.6,9.6s4.3,9.6,9.6,9.6c5.3,0,9.6-4.3,9.6-9.6S113.3,108.4,108,108.4z"/>
<path opacity="0.3" fill="#FFFFFF" d="M143.4,107.1c-1.1-3.8-3.9-7-7.9-9.1c-0.6-0.3-1.1-0.6-1.7-0.8c-1.2-0.5-2.4-0.9-3.7-1.3
	c-0.3-1.3-0.8-2.5-1.3-3.7c-0.3-0.6-0.5-1.2-0.8-1.7c-2.2-4-5.3-6.8-9.1-7.9c-2.8-0.9-5.7-0.9-8.7,0.1c-2.7,0.8-5.4,2.4-8,4.6
	c-0.9,0.8-1.9,1.7-2.7,2.7c-1.3-0.3-2.6-0.5-3.8-0.7c-3.3-0.4-6.5-0.2-9.2,0.7c-3,0.9-5.4,2.6-7.2,4.8c-2.5,3.1-3.6,7.1-3.1,11.7
	c0.1,0.6,0.2,1.3,0.3,1.9c0.2,1.2,0.6,2.5,1,3.8c0.6,1.6,1.2,3.2,2.1,4.8c0.6,1.1,1.2,2.1,1.9,3.2c0.2,0.4,0.5,0.8,0.8,1.1
	c0.9,1.3,1.8,2.5,2.9,3.8c-0.2,1.6-0.2,3.2-0.2,4.8c0,0.5,0,0.9,0,1.4c0,1.3,0.1,2.5,0.2,3.7c-0.8-0.3-1.6-0.6-2.3-1
	c-0.4-0.2-0.8-0.5-1.2-0.7c-2.3-1.5-3.8-3.4-4.5-5.7c-0.7-2.3-0.5-4.7,0.5-7.2c-1-1.7-1.8-3.4-2.5-5c-0.4,0.6-0.7,1.1-1,1.7
	c-2.1,4-2.6,8.2-1.4,11.9c1.1,3.8,3.9,7,7.9,9.1c0.6,0.3,1.1,0.6,1.7,0.8c1.2,0.5,2.4,0.9,3.7,1.3c0.3,1.3,0.8,2.5,1.3,3.7
	c0.3,0.6,0.5,1.2,0.8,1.7c2.2,4,5.3,6.8,9.1,7.9c2.8,0.9,5.7,0.9,8.7-0.1c2.8-0.8,5.4-2.4,8-4.6c0.9-0.8,1.9-1.7,2.7-2.7
	c1.1-1.2,2.2-2.6,3.3-4c0.6-0.9,1.3-1.8,1.9-2.8c0.1-0.1,0.1-0.2,0.2-0.3c0.9-1.4,1.7-2.9,2.5-4.5c1.7-0.8,3.3-1.7,4.8-2.6
	c1-0.6,1.9-1.2,2.8-1.9c1-0.7,2-1.5,2.9-2.3c0.2,0.8,0.4,1.6,0.4,2.4c0.1,0.5,0,0.9,0,1.4c0,2.7-0.7,5-2.2,6.9
	c-1.2,1.6-2.9,2.7-5,3.3v0c-1.4,0.4-2.9,0.6-4.6,0.6c-1,1.6-2.1,3.1-3.3,4.4c3.3,0.4,6.5,0.2,9.2-0.7c0,0,0,0,0,0
	c3-0.9,5.4-2.6,7.2-4.8c2.5-3.1,3.6-7.1,3.1-11.7c-0.1-0.6-0.2-1.3-0.3-1.9c-0.2-1.2-0.6-2.5-1-3.8c-0.6-1.6-1.2-3.2-2.1-4.8
	c-0.6-1.1-1.2-2.1-1.9-3.2c-0.2-0.4-0.5-0.8-0.8-1.1c-0.9-1.3-1.8-2.5-2.9-3.8c0.2-1.6,0.2-3.2,0.2-4.8c0-0.5,0-0.9,0-1.4
	c0-1.3-0.1-2.5-0.2-3.7c0.8,0.3,1.6,0.6,2.3,1c0.4,0.2,0.8,0.5,1.2,0.7c2.3,1.5,3.8,3.4,4.5,5.7c0.7,2.3,0.5,4.7-0.5,7.2
	c1,1.7,1.8,3.4,2.5,5c0.4-0.6,0.7-1.1,1-1.7C144.1,115,144.6,110.9,143.4,107.1z M131.7,119.7c0.3,0.5,0.6,1.1,0.9,1.6
	c0.3,0.5,0.5,1,0.7,1.5c-0.5,0.5-1,0.9-1.5,1.3c-0.4,0.3-0.8,0.6-1.1,0.9c-1.1,0.8-2.2,1.6-3.4,2.4c-1.9,1.2-4.1,2.4-6.4,3.4
	c-1.5,0.7-3,1.3-4.6,1.9c-1,0.4-2.1,0.7-3.2,1.1l-0.2,0.1l-0.2,0.1c-1.1,0.3-2.1,0.6-3.2,0.9c-1.7,0.4-3.3,0.8-4.9,1.1
	c-2.5,0.4-4.9,0.7-7.2,0.8c-1.4,0.1-2.8,0-4.2-0.1c0.1,0.4,0.2,0.9,0.3,1.3c0.3,1.2,0.7,2.4,1.2,3.4c1.1,0,2.2,0,3.4,0
	c1.8-0.1,3.6-0.3,5.5-0.5c2.4-0.3,4.9-0.8,7.3-1.5c0.4-0.1,0.9-0.2,1.3-0.3c0.6-0.2,1.2-0.3,1.8-0.5l0.4-0.1
	c0.6-0.2,1.2-0.4,1.8-0.6c0.4-0.1,0.8-0.3,1.3-0.4c-0.1,0.2-0.3,0.5-0.4,0.7c-0.7,1-1.3,1.9-2,2.8c-0.3,0.3-0.5,0.7-0.8,1
	c-0.8,1-1.7,1.9-2.5,2.7c-1,0.9-2,1.7-3,2.4c-1.4,0.9-2.8,1.6-4.2,2c-2.1,0.6-4.1,0.7-6,0.1c-2.3-0.7-4.1-2.2-5.6-4.5
	c-0.3-0.4-0.5-0.8-0.8-1.2c-0.4-0.7-0.7-1.5-1-2.3c-0.6-1.5-1-3.1-1.3-4.8c-0.1-0.5-0.2-1.1-0.2-1.6c-0.1-0.6-0.1-1.2-0.2-1.8
	c-0.1-1-0.1-1.9-0.1-2.9c1.1,1.1,2.2,2.1,3.4,3.2c0.1,0.1,0.2,0.2,0.3,0.3c2.3,0.2,4.7,0.1,7.3-0.1c-0.9-0.7-1.9-1.4-2.8-2.1
	c-1.7-1.4-3.3-2.8-4.8-4.2c-1.1-1-2.1-2.1-3-3.1c0.2-1.4,0.4-2.8,0.7-4.3c0.4-2,0.9-4.1,1.6-6.2c0.3-1.1,0.7-2.3,1.1-3.4
	c0.6-1.6,1.2-3.2,1.9-4.7c1-2.3,2.2-4.4,3.4-6.3c0.1-0.2,0.3-0.5,0.4-0.7c-1.7-0.5-3.3-0.8-4.9-0.9c-0.9,1.4-1.7,2.9-2.5,4.5
	c-1,2.1-2,4.4-2.9,6.8c-0.4,1.1-0.7,2.1-1.1,3.3c-0.2,0.7-0.4,1.3-0.6,2c0,0.1-0.1,0.3-0.1,0.4c-0.4,1.5-0.8,3-1.1,4.5
	c-0.6-0.8-1.1-1.7-1.6-2.5c-0.3-0.5-0.6-1.1-0.9-1.6c-0.3-0.5-0.5-1-0.7-1.5c-0.7-1.6-1.3-3.2-1.7-4.7c-0.2-0.8-0.4-1.6-0.4-2.4
	c-0.1-0.5,0-0.9,0-1.4c0-2.7,0.7-5,2.2-6.9c1.2-1.6,2.9-2.7,5-3.3c1.4-0.4,2.9-0.6,4.6-0.6c1.2,0,2.5,0.1,3.8,0.3
	c1.2,0.2,2.4,0.5,3.6,0.8c0.4,0.1,0.8,0.3,1.3,0.4c1.1,0.3,2.2,0.7,3.3,1.2c0.2,0.1,0.5,0.2,0.7,0.3c2.1,0.9,4.2,2,6.4,3.3
	c1.4,0.9,2.8,1.8,4.2,2.8c0.9,0.7,1.9,1.4,2.8,2.1c1.7,1.4,3.3,2.8,4.8,4.2c0.2-2.2,0.2-4.3,0-6.2c-0.1-0.1-0.2-0.2-0.3-0.3
	c-0.5-0.4-1-0.9-1.6-1.3c-0.9-0.7-1.8-1.4-2.7-2.1c-2.1-1.5-4.1-2.9-6.2-4c-1.5-0.9-3.1-1.7-4.6-2.4c-0.1,0-0.2-0.1-0.3-0.1
	c-1-0.5-2.1-0.9-3.1-1.3c1-0.9,2-1.7,3-2.4c1.4-0.9,2.8-1.6,4.2-2c2.1-0.6,4.1-0.7,6-0.1c2.3,0.7,4.1,2.2,5.6,4.5
	c0.3,0.4,0.5,0.8,0.8,1.2c0.4,0.7,0.7,1.5,1,2.3c0.6,1.5,1,3.1,1.3,4.8c0.1,0.5,0.2,1.1,0.2,1.6c0.1,0.6,0.1,1.2,0.2,1.8
	c0.1,1,0.1,1.9,0.1,2.9c0,2-0.2,4.1-0.4,6.2c-0.2,1.4-0.4,2.8-0.7,4.3c-0.4,2-0.9,4.1-1.6,6.2c-0.3,1.1-0.7,2.3-1.1,3.4
	c2.3-1.2,4.3-2.6,6.1-4c0-0.1,0.1-0.3,0.1-0.4c0.4-1.5,0.8-3,1.1-4.5C130.7,118.1,131.2,118.9,131.7,119.7z"/>
<path fill="#FFFFFF" d="M173.6,113.1c0,2.1,1.7,3.8,3.8,3.8c2.1,0,3.8-1.7,3.8-3.8c0-2.1-1.7-3.8-3.8-3.8
	C175.3,109.3,173.6,111,173.6,113.1z M182.9,102.5c0-1.1-0.8-1.9-1.9-1.9s-1.9,0.9-1.9,1.9c0,1.1,0.8,1.9,1.9,1.9
	S182.9,103.5,182.9,102.5z M185.9,115.9c-1.4,0-2.6,1.2-2.6,2.6s1.2,2.6,2.6,2.6c1.4,0,2.6-1.2,2.6-2.6S187.4,115.9,185.9,115.9z
	 M166.7,120.4c-2.3,0-3.5,2.3-3.7,2.8c-0.7,1.9-1,3.9-1,6c0,9.9,8,17.9,17.8,17.9c9.8,0,17.8-8,17.8-17.9c0-2.2-0.4-4.4-1.1-6.3
	c-0.7-1.6-1.7-2.5-3.6-2.5c-2.7,0-4,4.2-6.9,4.2c-2.8,0-2.8-3.8-6.1-3.8c-3.2,0-3.4,3.6-6.4,3.6
	C170.8,124.4,170.1,120.4,166.7,120.4z M185.8,135.6c1.1,0,2,0.9,2,2.1c0,1.1-0.9,2.1-2,2.1c-1.1,0-2-0.9-2-2.1
	C183.8,136.6,184.7,135.6,185.8,135.6z M179.8,126.8c2.1,0,3.7,1.7,3.7,3.8c0,2.1-1.7,3.8-3.7,3.8c-2.1,0-3.7-1.7-3.7-3.8
	C176.1,128.5,177.8,126.8,179.8,126.8z M177.5,139.7c1.1,0,2,0.9,2,2.1s-0.9,2.1-2,2.1c-1.1,0-2-0.9-2-2.1S176.4,139.7,177.5,139.7z
	"/>
<path opacity="0.3" fill="#FFFFFF" d="M167.8,86.2h23.8c1,0,1.9-0.9,1.9-2.1c0-1.2-0.8-2.1-1.9-2.1h-23.8c-1,0-1.9,0.9-1.9,2.1
	C165.9,85.3,166.8,86.2,167.8,86.2z M190.7,108.4V88.3h-3.4v22.2l1.8,1c6.9,3.6,11.2,10.6,11.2,18.4c0,11.4-9.2,20.7-20.6,20.7
	c-11.4,0-20.6-9.3-20.6-20.7c0-7.8,4.3-14.8,11.2-18.4l1.8-1V88.3h-3.4v20.1c-7.7,4-13,12.1-13,21.4c0,13.3,10.7,24.1,24,24.1
	c13.3,0,24-10.8,24-24.1C203.7,120.5,198.4,112.4,190.7,108.4z"/>
<path fill="#FFFFFF" d="M266,127.1c3.5,0,6.3,1.5,8.7,3.8c-1.7-9.6-7.6-17.7-15.7-22.5c-1.3,1-2.9,1.6-4.6,1.6c-4,0-7.2-3.2-7.2-7.1
	c0-3.7,2.9-6.8,6.7-7.1l0.6-2.7c0.3-1.4-0.6-2.8-2.1-3.1l-8.3-1.7c-1.4-0.3-2.9,0.6-3.2,2.1l-5.8,28.2c-0.3,1.4,0.6,2.8,2.1,3.1
	l1.2,0.2l-0.4,8.2l3.3,0.7l2.9-7.7l1.3,0.3c1.4,0.3,2.9-0.6,3.2-2.1l1.8-8.7c7.1,2.4,12.8,7.7,15.6,14.6
	C265.9,127.1,265.9,127.1,266,127.1z M251.7,88.3l1-5l-6.6-1.3l-1,5L251.7,88.3z"/>
<g opacity="0.3">
	<g>
		<path fill="#FFFFFF" d="M237.1,144.1c1.9,0,3.6-0.1,5.2-0.2l0.7-3.6l-11.4-2.3l-1.4,6.7C232.3,144.2,234.5,144.1,237.1,144.1z
			 M248,135.3l-19-3.9l-0.7,3.3l19,3.9L248,135.3z M265.4,129.3c-11.9,0,0.1,17.5-28.3,17.5c-15.8,0-14.1,7.2-14.1,7.2h58.1
			C281.1,154,277.4,129.3,265.4,129.3z M254,107.9c0.4,0,0.7,0,1.1-0.1c2.2-0.5,3.9-2.5,3.9-4.9c0-2.8-2.2-5-5-5
			c-0.6,0-1.2,0.1-1.8,0.3c-1.9,0.7-3.2,2.5-3.2,4.7C249.1,105.7,251.3,107.9,254,107.9z"/>
	</g>
</g>
<path opacity="0.3" fill="#FFFFFF" d="M346.8,113.7c-1.2-3.5,1.6-6.3,1.7-10.5c0,0,0,0,0,0c0,0,0-0.1,0-0.1c0-0.2,0-0.5,0-0.7
	C348.1,89.7,336.6,82,321.8,82c-15.1,0-27.3,10.7-27.3,23.8c0,2.7,0.4,5.2,1.1,7.5c0.6,1.8,1.2,3.1,2.2,5.1c1.2,2.3,1.6,2.9,2.4,4.4
	c2.2,4.2,4.5,8,4.4,11.4c0,4.2-4.2,13.9-4.2,13.9s7.1,3.1,13.4,4.7c7,1.8,14.9,0.9,14.9,0.9s-0.3-9.9,5.5-11.4c0,0,7.2,0,8.3,0
	c2,0,3.7-1,4.1-3.2c0.3-2.3-1.7-3.4-1-4.9c0.4-0.9,1.6-0.5,2-1.8c0.3-0.9-1-1.9-1-1.9s2.1-0.6,2.3-1.5c0.2-1-1.8-1.1-1.9-2.6
	c0-2,5.2-0.6,6.3-2.7C354.5,121.6,347.8,116.6,346.8,113.7z M344.5,103.2c0,1.1-0.3,2.2-0.9,3.5c-1.4,3.2-10,10.6-21,12.8
	c-9.9,1.9-17.4,0.7-20.9-3.9c-1.3-1.7-3.2-5.9-3.2-9.8c0-10.9,10.5-19.8,23.3-19.8c11,0,22.3,5.1,22.7,16.5c0,0.2,0,0.5,0,0.5
	C344.5,103.1,344.5,103.2,344.5,103.2z"/>
<path fill="#FFFFFF" d="M326.9,96c0.1-0.2,0.2-0.4,0.2-0.7c0.1-0.2,0.1-0.5,0.1-0.7l-1.5-1.1c-0.4-0.3-0.5-0.8-0.4-1.2l0.6-1.7
	c-0.3-0.4-0.6-0.7-1-1l-1.7,0.7c-0.4,0.2-1,0-1.3-0.3l-1.2-1.4c-0.5,0.1-0.9,0.2-1.4,0.4l-0.2,1.8c-0.1,0.4-0.5,0.8-0.9,0.9
	l-1.8,0.3c-0.1,0.2-0.2,0.4-0.2,0.7c-0.1,0.2-0.1,0.5-0.1,0.7l1.5,1.1c0.4,0.3,0.5,0.8,0.4,1.2l-0.6,1.7c0.3,0.4,0.6,0.7,1,1
	l1.7-0.7c0.4-0.2,1,0,1.3,0.3l1.2,1.4c0.5-0.1,0.9-0.2,1.4-0.4l0.2-1.8c0.1-0.4,0.5-0.8,0.9-0.9L326.9,96z M323.3,94.5
	c-0.2,0.9-1.1,1.4-2,1.2c-0.9-0.2-1.4-1.1-1.2-2c0.2-0.9,1.1-1.4,2-1.2C323,92.7,323.5,93.6,323.3,94.5z M338.6,103.1l2-1.1l0-0.3
	c-0.1-0.4-0.1-0.7-0.3-1.1l-0.1-0.3l-2.3-0.1c-0.3,0-0.5-0.1-0.6-0.3c-0.1-0.2-0.1-0.4,0-0.7l0.9-2.1l-0.2-0.2
	c-0.3-0.2-0.6-0.5-0.9-0.7l-0.3-0.2l-1.8,1.4c-0.1,0.1-0.2,0.1-0.2,0.1c-0.2,0.1-0.4,0.1-0.5,0c-0.2-0.1-0.3-0.3-0.4-0.5l-0.7-2.2
	l-0.3,0c-0.4,0-0.7,0-1.1,0.1l-0.3,0l-0.5,2.3c-0.1,0.3-0.2,0.5-0.4,0.6s-0.4,0-0.7-0.1l-2-1.2l-0.2,0.2c-0.3,0.2-0.6,0.5-0.8,0.7
	l-0.2,0.2l1.1,2c0.1,0.2,0.2,0.5,0.1,0.6c-0.1,0.1-0.2,0.3-0.4,0.3c-0.1,0-0.2,0.1-0.3,0.1l-2.3,0.3l-0.1,0.3
	c-0.1,0.4-0.1,0.7-0.1,1.1l0,0.3l2.2,0.9c0.3,0.1,0.5,0.3,0.5,0.5c0,0.2,0,0.4-0.2,0.6l-1.5,1.7l0.1,0.3c0.2,0.3,0.4,0.6,0.6,0.9
	l0.2,0.2l2.2-0.7c0.3-0.1,0.5-0.1,0.7,0.1c0.2,0.1,0.3,0.4,0.3,0.6l-0.1,2.2l0.3,0.1c0.4,0.1,0.7,0.2,1.1,0.3l0.3,0.1l1.2-1.9
	c0.1-0.2,0.2-0.3,0.4-0.4c0.3-0.1,0.6,0,0.8,0.3l1.4,1.7l0.3-0.1c0.2-0.1,0.4-0.1,0.5-0.2c0.2-0.1,0.4-0.2,0.5-0.2l0.3-0.1l-0.3-2.2
	c-0.1-0.4,0.1-0.7,0.3-0.8c0.1-0.1,0.3-0.1,0.5,0l2.2,0.5l0.2-0.2c0.2-0.3,0.4-0.7,0.5-1l0.1-0.3l-1.7-1.5c-0.2-0.2-0.3-0.4-0.3-0.6
	C338.2,103.4,338.3,103.2,338.6,103.1z M333.8,105.5c-1.5,0.6-3.2-0.1-3.8-1.5c-0.6-1.4,0.1-3.1,1.5-3.7c1.5-0.6,3.2,0.1,3.8,1.5
	C335.9,103.2,335.2,104.9,333.8,105.5z M321.1,107l2.3-1.2l0-0.3c0-0.2-0.1-0.5-0.1-0.7c-0.1-0.2-0.1-0.5-0.2-0.7l-0.1-0.3l-2.6-0.1
	c-0.4,0-0.7-0.2-0.9-0.4c-0.2-0.2-0.1-0.6,0-1l1.1-2.3l-0.2-0.2c-0.3-0.3-0.7-0.6-1.1-0.9l-0.2-0.2l-2.1,1.5
	c-0.2,0.1-0.3,0.2-0.5,0.2c-0.2,0.1-0.4,0-0.6-0.1c-0.2-0.1-0.4-0.4-0.4-0.7l-0.5-2.5l-0.3,0c-0.5-0.1-1-0.1-1.5-0.1h-0.3l-0.9,2.4
	c-0.1,0.4-0.4,0.7-0.7,0.7c-0.3,0.1-0.6,0-0.9-0.3l-1.9-1.7l-0.3,0.1c-0.4,0.2-0.8,0.5-1.2,0.8l-0.2,0.2l0.8,2.4
	c0.1,0.3,0.1,0.6,0,0.9c-0.1,0.2-0.3,0.3-0.5,0.3c-0.2,0-0.3,0-0.5,0l-2.6-0.3l-0.1,0.3c-0.2,0.4-0.4,0.9-0.6,1.3l-0.1,0.3l2.1,1.5
	c0.3,0.3,0.5,0.6,0.5,0.8c0,0.3-0.2,0.6-0.6,0.8l-2.3,1.2l0.1,0.3c0,0.2,0.1,0.5,0.1,0.7c0.1,0.2,0.1,0.5,0.2,0.7l0.1,0.3l2.6,0.1
	c0.4,0,0.7,0.2,0.9,0.4c0.2,0.2,0.1,0.6,0,1l-1.1,2.3l0.2,0.2c0.3,0.3,0.7,0.6,1.1,0.9l0.2,0.2l2.1-1.5c0.2-0.1,0.3-0.2,0.5-0.2
	c0.2-0.1,0.4,0,0.6,0.1c0.2,0.1,0.4,0.4,0.4,0.7l0.5,2.5l0.3,0c0.5,0.1,1,0.1,1.5,0.1l0.3,0l0.9-2.4c0.1-0.4,0.4-0.6,0.7-0.7
	c0.3-0.1,0.6,0,0.9,0.3l1.9,1.7l0.3-0.1c0.4-0.2,0.9-0.5,1.2-0.8l0.2-0.2l-0.8-2.4c-0.1-0.3-0.1-0.6,0-0.9c0.1-0.2,0.3-0.3,0.5-0.3
	c0.2,0,0.3,0,0.5,0l2.6,0.3l0.1-0.3c0.2-0.4,0.4-0.9,0.6-1.3l0.1-0.3l-2.1-1.5c-0.3-0.3-0.5-0.6-0.5-0.8
	C320.5,107.5,320.7,107.2,321.1,107z M313.9,111c-2.1,0.5-4.2-0.7-4.7-2.8c-0.5-2,0.8-4.1,2.8-4.6c2.1-0.5,4.2,0.7,4.7,2.8
	C317.3,108.4,316,110.5,313.9,111z"/>
<path fill="#FFFFFF" d="M431.6,82.4c-9-1.8-19.5,2.7-25.1,8.3c-5.6,5.6-8.3,8.3-12.6,12.6c-4.3,4.3-6.4,9.1-8.9,15.8
	c5.6-3.7,10-3.2,11.5-1.6c1.6,1.6,2,5.9-1.6,11.5c6.7-2.5,11.5-4.6,15.8-8.9c4.3-4.3,7-7,12.6-12.6
	C428.9,101.9,433.4,91.4,431.6,82.4z M409.1,104.9c-2.2-2.2-2.2-5.9,0-8.1s5.9-2.3,8.1,0c2.2,2.2,2.2,5.9,0,8.1
	C415,107.1,411.3,107.2,409.1,104.9z"/>
<g opacity="0.3">
	<g>
		<path fill="#FFFFFF" d="M393.5,120.1c-3.4-3.4-11.5,2.6-19,10.1l8.9,8.9C390.9,131.6,396.8,123.5,393.5,120.1z M366.6,120.8
			l6.9,6.9c7.5-7.5,8.7-9.2,11.5-15.4C378.3,112.1,374.2,113.3,366.6,120.8z M401.3,128.6c-6.2,2.8-7.9,3.9-15.4,11.5l6.9,6.9
			C400.3,139.4,401.4,135.3,401.3,128.6z"/>
	</g>
</g>
<g>
	<g>
		<path fill="#FFFFFF" d="M370.8,126.7l-2.7-2.7c0,0-7.4,0.6-8.1,10.8C370.2,134.1,370.8,126.7,370.8,126.7z M367.6,146.3
			c10.2-0.8,10.8-8.1,10.8-8.1l-2.7-2.7C375.8,135.5,368.4,136.1,367.6,146.3z M387.3,143.1c0,0-7.4,0.6-8.1,10.8
			c10.2-0.8,10.8-8.1,10.8-8.1L387.3,143.1z"/>
	</g>
</g>
<g>
	<path fill="#FFFFFF" d="M35.2,216C29,216,24,221.1,24,227.3c0,2.3,0.7,4.5,1.9,6.3c0.4,0.7,1.1,1.9,2.4,4c0.9,1.3,1.8,3,1.8,4.6
		v3.2c0,0.3,0.8,1.9,2.8,1.9h0.7c1.7,0,3.2,0,3.2,0h0.7c2,0,2.8-1.6,2.8-1.9v-3.2c0-1.6,0.9-3.3,1.8-4.6c1.4-2.2,2.1-3.4,2.5-4.1
		c1.2-1.8,1.9-3.9,1.9-6.2C46.4,221.1,41.4,216,35.2,216z"/>
	<path opacity="0.3" fill="#FFFFFF" d="M39.2,251.2h-7.9c-0.6,0-1,0.4-1,0.9c0,0.5,0.4,0.9,1,0.9h7.9c0.6,0,1-0.4,1-0.9
		C40.2,251.6,39.7,251.2,39.2,251.2z M39.1,253.6h-7.9c-0.6,0-1,0.4-1,0.9c0,0.5,0.5,0.9,1,0.9h7.9c0.6,0,1-0.4,1-0.9
		C40.2,254.1,39.7,253.6,39.1,253.6z M32.1,256.8l0.6,0.6c0,0,0.7,0.6,1.2,0.6h2.5c0.5,0,1.2-0.6,1.2-0.6l0.6-0.6H32.1z M39.2,248.7
		h-7.9c-0.6,0-1,0.4-1,0.9c0,0.5,0.4,0.9,1,0.9h7.9c0.6,0,1-0.4,1-0.9C40.2,249.1,39.7,248.7,39.2,248.7z"/>
</g>
<g>
	<path fill="#FFFFFF" d="M108,231.4c-3.1,0-5.6,2.5-5.6,5.6c0,3.1,2.5,5.6,5.6,5.6c3.1,0,5.6-2.5,5.6-5.6
		C113.6,233.9,111.1,231.4,108,231.4z"/>
	<path opacity="0.3" fill="#FFFFFF" d="M128.6,230.7c-0.7-2.2-2.3-4.1-4.6-5.3c-0.3-0.2-0.7-0.3-1-0.5c-0.7-0.3-1.4-0.5-2.1-0.7
		c-0.2-0.8-0.4-1.5-0.7-2.1c-0.2-0.3-0.3-0.7-0.5-1c-1.3-2.4-3.1-3.9-5.3-4.6c-1.6-0.5-3.3-0.5-5.1,0c-1.6,0.5-3.2,1.4-4.7,2.7
		c-0.5,0.5-1.1,1-1.6,1.6c-0.8-0.2-1.5-0.3-2.2-0.4c-1.9-0.2-3.8-0.1-5.4,0.4c-1.7,0.5-3.2,1.5-4.2,2.8c-1.5,1.8-2.1,4.2-1.8,6.8
		c0,0.4,0.1,0.7,0.2,1.1c0.1,0.7,0.3,1.4,0.6,2.2c0.3,0.9,0.7,1.9,1.2,2.8c0.3,0.6,0.7,1.2,1.1,1.9c0.1,0.2,0.3,0.4,0.4,0.7
		c0.5,0.7,1.1,1.5,1.7,2.2c-0.1,0.9-0.1,1.9-0.1,2.8c0,0.3,0,0.5,0,0.8c0,0.7,0.1,1.5,0.1,2.2c-0.5-0.2-0.9-0.4-1.3-0.6
		c-0.2-0.1-0.5-0.3-0.7-0.4c-1.3-0.9-2.2-2-2.6-3.3c-0.4-1.3-0.3-2.7,0.3-4.2c-0.6-1-1.1-2-1.5-2.9c-0.2,0.3-0.4,0.6-0.6,1
		c-1.2,2.4-1.5,4.8-0.8,7c0.7,2.2,2.3,4.1,4.6,5.3c0.3,0.2,0.7,0.3,1,0.5c0.7,0.3,1.4,0.5,2.1,0.7c0.2,0.8,0.4,1.5,0.7,2.1
		c0.2,0.3,0.3,0.7,0.5,1c1.3,2.4,3.1,3.9,5.3,4.6c1.6,0.5,3.3,0.5,5.1,0c1.6-0.5,3.2-1.4,4.7-2.7c0.5-0.5,1.1-1,1.6-1.6
		c0.7-0.7,1.3-1.5,1.9-2.4c0.4-0.5,0.7-1.1,1.1-1.6c0-0.1,0.1-0.1,0.1-0.2c0.5-0.8,1-1.7,1.4-2.6c1-0.5,1.9-1,2.8-1.5
		c0.6-0.4,1.1-0.7,1.6-1.1c0.6-0.4,1.2-0.9,1.7-1.3c0.1,0.5,0.2,1,0.3,1.4c0,0.3,0,0.6,0,0.8c0,1.6-0.4,2.9-1.3,4
		c-0.7,0.9-1.7,1.6-2.9,1.9v0c-0.8,0.3-1.7,0.4-2.7,0.4c-0.6,0.9-1.2,1.8-1.9,2.6c1.9,0.2,3.8,0.1,5.4-0.4c0,0,0,0,0,0
		c1.7-0.5,3.2-1.5,4.2-2.8c1.5-1.8,2.1-4.2,1.8-6.8c0-0.4-0.1-0.7-0.2-1.1c-0.1-0.7-0.3-1.5-0.6-2.2c-0.3-0.9-0.7-1.9-1.2-2.8
		c-0.3-0.6-0.7-1.2-1.1-1.9c-0.1-0.2-0.3-0.4-0.4-0.7c-0.5-0.7-1.1-1.5-1.7-2.2c0.1-0.9,0.1-1.9,0.1-2.8c0-0.3,0-0.5,0-0.8
		c0-0.7-0.1-1.5-0.1-2.2c0.5,0.2,0.9,0.4,1.3,0.6c0.2,0.1,0.5,0.3,0.7,0.4c1.3,0.9,2.2,2,2.6,3.3c0.4,1.3,0.3,2.7-0.3,4.2
		c0.6,1,1.1,2,1.5,2.9c0.2-0.3,0.4-0.6,0.6-1C129,235.3,129.3,232.8,128.6,230.7z M121.8,238c0.2,0.3,0.4,0.6,0.5,0.9
		c0.1,0.3,0.3,0.6,0.4,0.9c-0.3,0.3-0.6,0.5-0.9,0.8c-0.2,0.2-0.4,0.4-0.7,0.5c-0.6,0.5-1.3,0.9-2,1.4c-1.1,0.7-2.4,1.4-3.7,2
		c-0.9,0.4-1.8,0.8-2.7,1.1c-0.6,0.2-1.2,0.4-1.8,0.6l-0.1,0l-0.1,0c-0.6,0.2-1.2,0.4-1.9,0.5c-1,0.2-1.9,0.5-2.9,0.6
		c-1.4,0.2-2.8,0.4-4.2,0.4c-0.8,0-1.6,0-2.4,0c0.1,0.3,0.1,0.5,0.2,0.8c0.2,0.7,0.4,1.4,0.7,2c0.6,0,1.3,0,2,0c1,0,2.1-0.1,3.2-0.3
		c1.4-0.2,2.8-0.5,4.3-0.9c0.2-0.1,0.5-0.1,0.7-0.2c0.3-0.1,0.7-0.2,1-0.3l0.2-0.1c0.3-0.1,0.7-0.2,1-0.3c0.2-0.1,0.5-0.2,0.7-0.3
		c-0.1,0.1-0.2,0.3-0.3,0.4c-0.4,0.6-0.8,1.1-1.2,1.7c-0.2,0.2-0.3,0.4-0.5,0.6c-0.5,0.6-1,1.1-1.5,1.6c-0.6,0.5-1.1,1-1.7,1.4
		c-0.8,0.5-1.6,0.9-2.4,1.2c-1.2,0.4-2.4,0.4-3.5,0c-1.3-0.4-2.4-1.3-3.3-2.6c-0.2-0.2-0.3-0.4-0.4-0.7c-0.2-0.4-0.4-0.9-0.6-1.3
		c-0.3-0.9-0.6-1.8-0.7-2.8c-0.1-0.3-0.1-0.6-0.1-0.9c0-0.3-0.1-0.7-0.1-1.1c0-0.6-0.1-1.1-0.1-1.7c0.6,0.6,1.3,1.2,2,1.8
		c0.1,0.1,0.1,0.1,0.2,0.2c1.3,0.1,2.8,0.1,4.3-0.1c-0.6-0.4-1.1-0.8-1.6-1.3c-1-0.8-1.9-1.6-2.8-2.5c-0.6-0.6-1.2-1.2-1.8-1.8
		c0.1-0.8,0.3-1.7,0.4-2.5c0.2-1.2,0.6-2.4,0.9-3.6c0.2-0.7,0.4-1.3,0.7-2c0.3-0.9,0.7-1.8,1.1-2.7c0.6-1.3,1.3-2.6,2-3.7
		c0.1-0.1,0.2-0.3,0.3-0.4c-1-0.3-1.9-0.5-2.8-0.5c-0.5,0.8-1,1.7-1.4,2.6c-0.6,1.3-1.2,2.6-1.7,4c-0.2,0.6-0.4,1.3-0.6,1.9
		c-0.1,0.4-0.2,0.8-0.3,1.2c0,0.1,0,0.2-0.1,0.2c-0.2,0.9-0.4,1.8-0.6,2.6c-0.3-0.5-0.6-1-0.9-1.4c-0.2-0.3-0.4-0.6-0.5-0.9
		c-0.1-0.3-0.3-0.6-0.4-0.9c-0.4-0.9-0.7-1.8-1-2.7c-0.1-0.5-0.2-1-0.3-1.4c0-0.3,0-0.6,0-0.8c0-1.6,0.4-2.9,1.3-4
		c0.7-0.9,1.7-1.6,2.9-1.9c0.8-0.3,1.7-0.4,2.7-0.4c0.7,0,1.4,0.1,2.2,0.2c0.7,0.1,1.4,0.3,2.1,0.5c0.2,0.1,0.5,0.1,0.7,0.2
		c0.6,0.2,1.3,0.4,1.9,0.7c0.1,0.1,0.3,0.1,0.4,0.2c1.2,0.5,2.5,1.2,3.7,1.9c0.8,0.5,1.6,1,2.4,1.6c0.6,0.4,1.1,0.8,1.6,1.3
		c1,0.8,1.9,1.6,2.8,2.5c0.1-1.3,0.1-2.5,0-3.6c-0.1-0.1-0.1-0.1-0.2-0.2c-0.3-0.3-0.6-0.5-0.9-0.8c-0.5-0.4-1.1-0.8-1.6-1.2
		c-1.2-0.9-2.4-1.7-3.6-2.4c-0.9-0.5-1.8-1-2.7-1.4c-0.1,0-0.1-0.1-0.2-0.1c-0.6-0.3-1.2-0.5-1.8-0.7c0.6-0.5,1.1-1,1.7-1.4
		c0.8-0.5,1.6-0.9,2.4-1.2c1.2-0.4,2.4-0.4,3.5,0c1.3,0.4,2.4,1.3,3.3,2.6c0.2,0.2,0.3,0.4,0.4,0.7c0.2,0.4,0.4,0.9,0.6,1.3
		c0.3,0.9,0.6,1.8,0.7,2.8c0.1,0.3,0.1,0.6,0.1,0.9c0,0.4,0.1,0.7,0.1,1.1c0,0.6,0.1,1.1,0.1,1.7c0,1.2-0.1,2.4-0.3,3.6
		c-0.1,0.8-0.2,1.7-0.4,2.5c-0.2,1.2-0.6,2.4-0.9,3.6c-0.2,0.7-0.4,1.3-0.7,2c1.3-0.7,2.5-1.5,3.6-2.3c0-0.1,0-0.2,0.1-0.2
		c0.2-0.9,0.4-1.8,0.6-2.7C121.2,237.1,121.5,237.5,121.8,238z"/>
</g>
<g>
	<path fill="#FFFFFF" d="M175.5,234.1c0,1.2,1,2.2,2.2,2.2c1.2,0,2.2-1,2.2-2.2c0-1.2-1-2.2-2.2-2.2
		C176.4,231.9,175.5,232.9,175.5,234.1z M180.9,227.9c0-0.6-0.5-1.1-1.1-1.1s-1.1,0.5-1.1,1.1s0.5,1.1,1.1,1.1
		S180.9,228.6,180.9,227.9z M182.6,235.8c-0.8,0-1.5,0.7-1.5,1.5c0,0.8,0.7,1.5,1.5,1.5s1.5-0.7,1.5-1.5
		C184.2,236.5,183.5,235.8,182.6,235.8z M171.4,238.4c-1.4,0-2.1,1.4-2.2,1.6c-0.4,1.1-0.6,2.3-0.6,3.5c0,5.8,4.6,10.4,10.4,10.4
		c5.7,0,10.4-4.7,10.4-10.4c0-1.3-0.2-2.5-0.7-3.7c-0.4-0.9-1-1.5-2.1-1.5c-1.6,0-2.3,2.5-4,2.5c-1.6,0-1.7-2.2-3.5-2.2
		c-1.9,0-2,2.1-3.8,2.1C173.8,240.7,173.4,238.4,171.4,238.4z M182.6,247.3c0.7,0,1.2,0.5,1.2,1.2c0,0.7-0.5,1.2-1.2,1.2
		c-0.7,0-1.2-0.5-1.2-1.2C181.4,247.8,181.9,247.3,182.6,247.3z M179.1,242.1c1.2,0,2.2,1,2.2,2.2c0,1.2-1,2.2-2.2,2.2
		s-2.2-1-2.2-2.2C176.9,243.1,177.9,242.1,179.1,242.1z M177.8,249.7c0.7,0,1.2,0.5,1.2,1.2s-0.5,1.2-1.2,1.2s-1.2-0.5-1.2-1.2
		S177.1,249.7,177.8,249.7z"/>
	<path opacity="0.3" fill="#FFFFFF" d="M172.1,218.5h13.9c0.6,0,1.1-0.6,1.1-1.2c0-0.7-0.5-1.2-1.1-1.2h-13.9
		c-0.6,0-1.1,0.6-1.1,1.2C171,217.9,171.5,218.5,172.1,218.5z M185.4,231.4v-11.7h-2v12.9l1.1,0.6c4,2.1,6.5,6.2,6.5,10.7
		c0,6.7-5.4,12.1-12,12.1c-6.6,0-12-5.4-12-12.1c0-4.5,2.5-8.7,6.5-10.7l1.1-0.6v-12.9h-2v11.7c-4.5,2.3-7.6,7.1-7.6,12.5
		c0,7.8,6.3,14.1,14,14.1c7.7,0,14-6.3,14-14.1C193,238.5,189.9,233.7,185.4,231.4z"/>
</g>
<g>
	<path fill="#FFFFFF" d="M259.1,242.3c2,0,3.7,0.9,5.1,2.2c-1-5.6-4.4-10.3-9.2-13.1c-0.7,0.6-1.7,0.9-2.7,0.9
		c-2.3,0-4.2-1.9-4.2-4.2c0-2.2,1.7-4,3.9-4.1l0.3-1.6c0.2-0.8-0.4-1.6-1.2-1.8l-4.8-1c-0.8-0.2-1.7,0.4-1.8,1.2l-3.4,16.4
		c-0.2,0.8,0.4,1.6,1.2,1.8l0.7,0.1l-0.2,4.8l1.9,0.4l1.7-4.5l0.7,0.1c0.8,0.2,1.7-0.4,1.8-1.2l1-5.1
		C254.1,235.2,257.4,238.3,259.1,242.3C259,242.3,259.1,242.3,259.1,242.3z M250.7,219.7l0.6-2.9l-3.9-0.8l-0.6,2.9L250.7,219.7z"/>
	<g opacity="0.3">
		<g>
			<path fill="#FFFFFF" d="M248.6,247.1l-11.1-2.3l-0.4,1.9l11.1,2.3L248.6,247.1z M258.8,243.6c-7,0,0.1,10.2-16.5,10.2
				c-9.2,0-8.2,4.2-8.2,4.2h33.9C267.9,258,265.7,243.6,258.8,243.6z M242.3,252.2c1.1,0,2.1,0,3-0.1l0.4-2.1l-6.7-1.4l-0.8,3.9
				C239.4,252.3,240.7,252.2,242.3,252.2z M252.1,231.1c0.2,0,0.4,0,0.6-0.1c1.3-0.3,2.3-1.5,2.3-2.9c0-1.6-1.3-2.9-2.9-2.9
				c-0.4,0-0.7,0.1-1,0.2c-1.1,0.4-1.9,1.5-1.9,2.7C249.2,229.8,250.5,231.1,252.1,231.1z"/>
		</g>
	</g>
</g>
<g>
	<path opacity="0.3" fill="#FFFFFF" d="M336.5,234.5c-0.7-2.1,0.9-3.7,1-6.1c0,0,0,0,0,0c0,0,0,0,0,0c0-0.1,0-0.3,0-0.4
		c-0.3-7.4-6.9-11.9-15.6-11.9c-8.8,0-15.9,6.2-15.9,13.9c0,1.6,0.2,3,0.7,4.4c0.3,1,0.7,1.8,1.3,3c0.7,1.3,0.9,1.7,1.4,2.6
		c1.3,2.4,2.6,4.7,2.6,6.7c0,2.5-2.5,8.1-2.5,8.1s4.1,1.8,7.8,2.7c4.1,1,8.7,0.5,8.7,0.5s-0.2-5.8,3.2-6.6c0,0,4.2,0,4.8,0
		c1.2,0,2.2-0.6,2.4-1.9c0.2-1.3-1-2-0.6-2.9c0.2-0.5,0.9-0.3,1.2-1.1c0.1-0.5-0.6-1.1-0.6-1.1s1.2-0.3,1.3-0.9
		c0.1-0.6-1.1-0.7-1.1-1.5c0-1.2,3-0.4,3.7-1.5C341,239.1,337.1,236.2,336.5,234.5z M335.2,228.4c0,0.6-0.2,1.3-0.5,2
		c-0.8,1.9-5.8,6.2-12.2,7.5c-5.8,1.1-10.2,0.4-12.2-2.3c-0.7-1-1.9-3.4-1.9-5.7c0-6.4,6.1-11.6,13.6-11.6c6.4,0,13,3,13.2,9.6
		C335.2,228.1,335.2,228.3,335.2,228.4L335.2,228.4z"/>
	<path fill="#FFFFFF" d="M324.9,224.2c0-0.1,0.1-0.3,0.1-0.4c0-0.1,0.1-0.3,0.1-0.4l-0.9-0.6c-0.2-0.2-0.3-0.5-0.2-0.7l0.4-1
		c-0.2-0.2-0.4-0.4-0.6-0.6l-1,0.4c-0.2,0.1-0.6,0-0.7-0.2l-0.7-0.8c-0.3,0-0.5,0.1-0.8,0.2l-0.1,1.1c0,0.3-0.3,0.5-0.5,0.5
		l-1.1,0.2c0,0.1-0.1,0.3-0.1,0.4c0,0.1-0.1,0.3-0.1,0.4l0.9,0.6c0.2,0.2,0.3,0.5,0.2,0.7l-0.4,1c0.2,0.2,0.4,0.4,0.6,0.6l1-0.4
		c0.2-0.1,0.6,0,0.7,0.2l0.7,0.8c0.3,0,0.5-0.1,0.8-0.2l0.1-1.1c0-0.3,0.3-0.5,0.5-0.5L324.9,224.2z M322.8,223.3
		c-0.1,0.5-0.6,0.8-1.2,0.7c-0.5-0.1-0.8-0.6-0.7-1.1s0.7-0.8,1.2-0.7C322.6,222.3,322.9,222.8,322.8,223.3z M331.7,228.3l1.2-0.6
		l0-0.2c0-0.2-0.1-0.4-0.1-0.6l0-0.2l-1.3,0c-0.2,0-0.3-0.1-0.4-0.2c-0.1-0.1-0.1-0.2,0-0.4l0.5-1.2l-0.1-0.1
		c-0.2-0.1-0.3-0.3-0.5-0.4l-0.1-0.1l-1.1,0.8c0,0-0.1,0.1-0.1,0.1c-0.1,0-0.2,0-0.3,0c-0.1,0-0.2-0.1-0.2-0.3l-0.4-1.3l-0.2,0
		c-0.2,0-0.4,0-0.6,0l-0.2,0l-0.3,1.3c0,0.2-0.1,0.3-0.2,0.3c-0.1,0-0.3,0-0.4-0.1l-1.2-0.7l-0.1,0.1c-0.2,0.1-0.3,0.3-0.5,0.4
		l-0.1,0.1l0.6,1.2c0.1,0.1,0.1,0.3,0.1,0.4c0,0.1-0.1,0.2-0.2,0.2c0,0-0.1,0-0.2,0l-1.3,0.2l0,0.2c0,0.2-0.1,0.4-0.1,0.6l0,0.2
		l1.3,0.5c0.2,0.1,0.3,0.2,0.3,0.3c0,0.1,0,0.3-0.1,0.4l-0.9,1l0.1,0.1c0.1,0.2,0.2,0.4,0.4,0.5l0.1,0.1l1.3-0.4
		c0.2-0.1,0.3,0,0.4,0c0.1,0.1,0.2,0.2,0.1,0.4l0,1.3l0.2,0.1c0.2,0.1,0.4,0.1,0.6,0.2l0.2,0l0.7-1.1c0.1-0.1,0.1-0.2,0.2-0.2
		c0.2-0.1,0.3,0,0.5,0.2l0.8,1l0.2-0.1c0.1,0,0.2-0.1,0.3-0.1c0.1,0,0.2-0.1,0.3-0.1l0.2-0.1l-0.2-1.3c0-0.2,0-0.4,0.2-0.4
		c0.1,0,0.2,0,0.3,0l1.3,0.3l0.1-0.1c0.1-0.2,0.2-0.4,0.3-0.6l0.1-0.2l-1-0.9c-0.1-0.1-0.2-0.2-0.2-0.4
		C331.5,228.5,331.6,228.4,331.7,228.3z M328.9,229.7c-0.9,0.4-1.8,0-2.2-0.9c-0.4-0.8,0-1.8,0.9-2.2c0.9-0.4,1.8,0,2.2,0.9
		C330.2,228.4,329.8,229.4,328.9,229.7z M321.5,230.6l1.3-0.7l0-0.2c0-0.1-0.1-0.3-0.1-0.4c0-0.1-0.1-0.3-0.1-0.4l-0.1-0.2l-1.5,0
		c-0.2,0-0.4-0.1-0.5-0.2c-0.1-0.1-0.1-0.3,0-0.6l0.6-1.3l-0.1-0.1c-0.2-0.2-0.4-0.4-0.7-0.5l-0.1-0.1l-1.2,0.8
		c-0.1,0.1-0.2,0.1-0.3,0.1c-0.1,0-0.3,0-0.4,0c-0.1-0.1-0.2-0.2-0.3-0.4l-0.3-1.5l-0.2,0c-0.3,0-0.6-0.1-0.9-0.1h-0.2l-0.5,1.4
		c-0.1,0.2-0.2,0.4-0.4,0.4c-0.2,0-0.4,0-0.5-0.2l-1.1-1l-0.2,0.1c-0.2,0.1-0.5,0.3-0.7,0.4l-0.1,0.1l0.4,1.4c0.1,0.2,0.1,0.4,0,0.5
		c-0.1,0.1-0.2,0.2-0.3,0.2c-0.1,0-0.2,0-0.3,0l-1.5-0.2l-0.1,0.2c-0.1,0.3-0.2,0.5-0.3,0.8l-0.1,0.2l1.2,0.9
		c0.2,0.1,0.3,0.3,0.3,0.5c0,0.2-0.1,0.3-0.4,0.4l-1.3,0.7l0,0.2c0,0.1,0.1,0.3,0.1,0.4c0,0.1,0.1,0.3,0.1,0.4l0.1,0.2l1.5,0
		c0.2,0,0.4,0.1,0.5,0.2c0.1,0.1,0.1,0.3,0,0.6l-0.6,1.3l0.1,0.1c0.2,0.2,0.4,0.4,0.7,0.5l0.1,0.1l1.2-0.8c0.1-0.1,0.2-0.1,0.3-0.1
		c0.1,0,0.3,0,0.4,0c0.1,0.1,0.2,0.2,0.3,0.4l0.3,1.5l0.2,0c0.3,0,0.6,0.1,0.9,0.1l0.2,0l0.5-1.4c0.1-0.2,0.2-0.4,0.4-0.4
		c0.2,0,0.4,0,0.5,0.2l1.1,1l0.2-0.1c0.3-0.1,0.5-0.3,0.7-0.4l0.1-0.1l-0.4-1.4c-0.1-0.2-0.1-0.4,0-0.5c0.1-0.1,0.2-0.2,0.3-0.2
		c0.1,0,0.2,0,0.3,0l1.5,0.2l0.1-0.2c0.1-0.3,0.2-0.5,0.3-0.8l0.1-0.2l-1.2-0.9c-0.2-0.1-0.3-0.3-0.3-0.5
		C321.2,230.9,321.3,230.7,321.5,230.6z M317.3,232.9c-1.2,0.3-2.4-0.4-2.7-1.6c-0.3-1.2,0.4-2.4,1.7-2.7c1.2-0.3,2.4,0.4,2.7,1.6
		C319.3,231.4,318.6,232.6,317.3,232.9z"/>
</g>
<g>
	<path fill="#FFFFFF" d="M415.8,216.2c-5.3-1-11.4,1.6-14.6,4.9c-3.3,3.3-4.8,4.8-7.3,7.3c-2.5,2.5-3.7,5.3-5.2,9.2
		c3.3-2.1,5.8-1.9,6.7-1c0.9,0.9,1.2,3.4-1,6.7c3.9-1.5,6.7-2.7,9.2-5.2c2.5-2.5,4.1-4.1,7.3-7.3
		C414.2,227.6,416.8,221.5,415.8,216.2z M402.6,229.4c-1.3-1.3-1.3-3.4,0-4.7c1.3-1.3,3.4-1.3,4.7,0c1.3,1.3,1.3,3.4,0,4.7
		C406.1,230.7,403.9,230.7,402.6,229.4z"/>
	<g opacity="0.3">
		<g>
			<path fill="#FFFFFF" d="M393.5,238.2c-2-2-6.7,1.5-11.1,5.9l5.2,5.2C392,244.9,395.5,240.2,393.5,238.2z M377.9,238.7l4,4
				c4.4-4.4,5.1-5.4,6.7-9C384.7,233.6,382.3,234.3,377.9,238.7z M398.1,243.2c-3.6,1.6-4.6,2.3-9,6.7l4,4
				C397.5,249.5,398.2,247.1,398.1,243.2z"/>
		</g>
	</g>
	<g>
		<g>
			<path fill="#FFFFFF" d="M380.3,242.1l-1.6-1.6c0,0-4.3,0.4-4.8,6.3C380,246.4,380.3,242.1,380.3,242.1z M378.5,253.5
				c6-0.4,6.3-4.8,6.3-4.8l-1.6-1.6C383.2,247.2,378.9,247.6,378.5,253.5z M389.9,251.7c0,0-4.3,0.4-4.8,6.3c6-0.4,6.3-4.8,6.3-4.8
				L389.9,251.7z"/>
		</g>
	</g>
</g>
<g>
	<g>
		<path fill="#4A4643" d="M452.4,29l-4.4,12.7h3.9l0.8-2.4h4.3l0.8,2.4h4L457.5,29H452.4z M453.5,36.3l1.4-4.4l1.3,4.4H453.5z
			 M470,36.3c0,1.8-0.5,2.4-1.9,2.4c-1.4,0-2-0.8-2-2.5V29h-4v7.7c0,3.8,2.5,5.3,5.9,5.3c3.5,0,5.9-1.7,5.9-5.6V29h-4V36.3z
			 M483.7,35.2l4.2-6.2h-4.4l-2.2,3.7l-2.2-3.7h-4.4l4.2,6.3l-4.3,6.4h4.3l2.3-3.9l2.3,3.9h4.4L483.7,35.2z"/>
	</g>
</g>
<path fill="#C4BEBA" d="M468.1,9.5c14.4,0,26,11.6,26,26s-11.6,26-26,26s-26-11.6-26-26S453.7,9.5,468.1,9.5 M468.1,7.5
	c-15.4,0-28,12.6-28,28s12.6,28,28,28s28-12.6,28-28S483.5,7.5,468.1,7.5L468.1,7.5z"/>
<polygon opacity="0.3" fill="#FFFFFF" enable-background="new    " points="514.1,89.1 507,82 478.1,110.9 449.2,82 442.1,89.1 
	470.8,118 442.4,146.5 449.5,153.7 478.1,125.2 506.6,153.7 513.7,146.5 485.3,118 "/>
<polygon opacity="0.3" fill="#FFFFFF" enable-background="new    " points="489,220 484.9,215.8 468,232.7 451.1,215.8 447,220 
	463.8,236.9 447.2,253.6 451.4,257.8 468,241.1 484.6,257.8 488.8,253.6 472.2,236.9 "/>
</svg>
